<?xml version="1.0" standalone="no"?>
<!DOCTYPE svg PUBLIC "-//W3C//DTD SVG 20010904//EN"
 "http://www.w3.org/TR/2001/REC-SVG-20010904/DTD/svg10.dtd">
<svg version="1.0" xmlns="http://www.w3.org/2000/svg"
 width="746.000000pt" height="520.000000pt" viewBox="0 0 746.000000 520.000000"
 preserveAspectRatio="xMidYMid meet">

<g transform="translate(0.000000,520.000000) scale(0.100000,-0.100000)"
fill="#000000" stroke="none">
<path d="M1827 4358 c-7 -33 -2 -826 5 -833 3 -4 207 -6 453 -5 322 0 451 4
463 12 9 7 55 53 101 102 47 50 137 145 200 211 63 66 157 165 210 220 52 55
142 148 200 208 l106 107 -867 0 -866 0 -5 -22z m367 -188 c18 0 40 -6 50 -13
17 -12 17 -15 1 -55 l-17 -42 -77 6 c-62 5 -79 4 -89 -9 -19 -23 5 -41 87 -66
38 -12 83 -32 99 -46 17 -14 32 -25 35 -25 3 0 17 33 32 73 49 129 68 168 86
177 21 12 109 13 126 2 7 -4 24 -39 38 -77 14 -39 29 -77 32 -85 3 -8 14 -35
23 -59 30 -84 40 -64 40 83 l0 136 26 6 c15 4 67 4 116 1 107 -7 147 -28 179
-95 18 -35 20 -54 15 -98 -10 -90 -62 -140 -156 -151 l-50 -6 0 -41 c0 -23 -5
-47 -12 -54 -8 -8 -46 -12 -103 -12 -91 0 -118 8 -127 39 -3 10 -25 14 -87 14
-81 0 -85 -1 -98 -27 -12 -23 -19 -26 -71 -26 -32 0 -63 5 -69 11 -7 7 -30 6
-76 -2 -50 -9 -82 -9 -134 -1 -84 14 -96 27 -79 85 10 36 16 42 37 40 118 -12
146 -13 159 -3 13 9 12 12 -5 26 -11 8 -31 17 -45 20 -108 23 -155 69 -154
151 0 46 4 58 30 83 34 34 96 51 163 44 24 -2 58 -4 75 -4z"/>
<path d="M2790 4005 c0 -39 3 -45 21 -45 33 0 59 19 59 43 0 31 -18 47 -52 47
-27 0 -28 -2 -28 -45z"/>
<path d="M2452 3993 c1 -5 -3 -17 -9 -29 -6 -11 -13 -33 -15 -50 -3 -25 0 -29
26 -32 44 -5 50 9 29 67 -10 28 -21 51 -25 51 -5 0 -7 -3 -6 -7z"/>
<path d="M3043 3301 c-72 -25 -117 -57 -162 -116 -43 -57 -62 -113 -62 -187
-1 -139 94 -271 221 -308 82 -24 95 -26 153 -16 71 11 109 30 169 85 77 71
103 131 102 241 0 97 -23 162 -77 218 -30 32 -91 68 -129 78 -10 2 -28 7 -40
10 -57 15 -125 13 -175 -5z m127 -146 c8 -10 12 -56 11 -147 -1 -160 -3 -167
-25 -180 -35 -20 -45 9 -47 129 -1 88 -4 110 -14 106 -8 -2 -19 5 -25 17 -10
18 -6 26 23 55 38 38 58 43 77 20z"/>
<path d="M2036 1235 c-21 -7 -52 -30 -70 -52 -17 -21 -74 -84 -126 -141 -52
-57 -97 -108 -98 -113 -3 -6 39 -9 104 -7 l108 3 63 90 c35 50 83 117 106 150
65 90 65 85 5 85 -29 -1 -70 -7 -92 -15z"/>
<path d="M2184 1179 c-107 -155 -164 -242 -164 -250 0 -11 160 -12 176 -1 16
10 64 74 157 210 l78 112 -99 0 -99 0 -49 -71z"/>
<path d="M2434 1178 c-28 -40 -76 -111 -108 -157 -63 -91 -63 -99 7 -96 23 2
75 3 115 4 l72 1 19 43 c10 23 38 85 61 137 66 148 68 140 -32 140 l-84 0 -50
-72z"/>
<path d="M2685 1198 c-36 -78 -115 -259 -115 -264 0 -2 58 -4 129 -4 126 0
130 1 136 23 4 12 23 60 42 107 60 145 73 179 73 184 0 3 -54 6 -120 6 l-120
0 -25 -52z"/>
<path d="M2990 1231 c-5 -11 -30 -75 -54 -143 -24 -68 -47 -131 -51 -140 -6
-16 1 -18 82 -18 l89 0 18 43 c10 23 40 90 67 149 27 59 49 111 49 117 0 7
-34 11 -95 11 -83 0 -96 -2 -105 -19z"/>
<path d="M3243 1238 c-12 -21 -133 -292 -133 -300 0 -5 46 -8 103 -8 l102 0
53 154 c28 84 52 156 52 160 0 12 -169 6 -177 -6z"/>
<path d="M3465 1238 c-15 -42 -96 -285 -98 -293 -1 -6 51 -10 143 -10 l144 0
32 135 c17 74 33 144 35 155 4 19 -2 20 -124 23 -96 2 -128 -1 -132 -10z"/>
<path d="M3771 1227 c-11 -28 -71 -272 -71 -287 0 -7 40 -10 123 -8 l122 3 6
70 c4 39 8 108 9 155 l3 85 -92 3 c-88 3 -92 2 -100 -21z"/>
<path d="M4016 1238 c-3 -7 -7 -51 -10 -98 -3 -47 -9 -113 -12 -148 l-7 -63
104 3 104 3 -3 125 c-1 69 -5 140 -8 158 l-5 32 -80 0 c-55 0 -81 -4 -83 -12z"/>
<path d="M4235 1108 c4 -79 9 -151 11 -160 5 -16 19 -18 119 -18 63 0 116 4
119 8 5 9 -8 83 -41 240 l-15 72 -100 0 -100 0 7 -142z"/>
<path d="M4478 1245 c-3 -3 5 -49 18 -103 12 -53 26 -118 29 -144 4 -26 13
-52 20 -58 8 -7 52 -10 116 -8 85 2 104 6 102 18 -1 13 -37 116 -89 258 l-16
42 -87 0 c-48 0 -90 -2 -93 -5z"/>
<path d="M4710 1242 c0 -14 102 -286 112 -299 7 -9 37 -11 100 -8 50 2 92 6
95 9 3 3 -3 17 -14 33 -10 15 -36 66 -58 113 -21 47 -49 102 -62 123 l-23 37
-75 0 c-41 0 -75 -4 -75 -8z"/>
<path d="M4920 1245 c0 -4 54 -114 113 -232 l37 -73 130 0 c72 0 130 3 129 8
0 4 -20 34 -45 67 -24 33 -60 84 -79 113 -20 28 -49 68 -66 87 l-31 35 -94 0
c-52 0 -94 -2 -94 -5z"/>
<path d="M5180 1242 c0 -5 28 -47 63 -94 34 -47 82 -113 106 -147 l44 -61 103
0 c57 0 104 3 104 8 0 4 -61 74 -136 155 l-136 147 -74 0 c-41 0 -74 -4 -74
-8z"/>
<path d="M5401 1242 c2 -6 45 -55 95 -109 49 -54 110 -119 133 -145 l44 -48
93 0 c52 0 94 3 94 6 0 11 -103 133 -167 200 -42 43 -72 65 -108 78 -62 21
-189 34 -184 18z"/>
<path d="M2986 658 c-51 -167 -64 -217 -58 -222 7 -8 1757 -8 1765 0 6 7 -12
56 -75 207 l-41 97 -783 0 -783 0 -25 -82z"/>
</g>
</svg>
