<?xml version="1.0" encoding="utf-8"?>
<!-- Generator: Adobe Illustrator 27.5.0, SVG Export Plug-In . SVG Version: 6.00 Build 0)  -->
<svg version="1.1" xmlns="http://www.w3.org/2000/svg" xmlns:xlink="http://www.w3.org/1999/xlink" x="0px" y="0px"
	 viewBox="0 0 2475 1650" style="enable-background:new 0 0 2475 1650;" xml:space="preserve">
<g id="Background">
	<rect style="fill:#FFFFFF;" width="2475" height="1650"/>
</g>
<g id="Illustration">
	<g>
		
			<linearGradient id="SVGID_1_" gradientUnits="userSpaceOnUse" x1="-5055.4893" y1="781.1786" x2="-2840.8247" y2="781.1786" gradientTransform="matrix(-1 0 0 1 -2681.2141 0)">
			<stop  offset="0" style="stop-color:#DAE3FE"/>
			<stop  offset="1" style="stop-color:#E9EFFD"/>
		</linearGradient>
		<path style="fill:url(#SVGID_1_);" d="M1980.458,157.103c174.053,139.186-57.852,324.214,61.115,403.769
			c118.967,79.555,611.669,234.713,115.501,542.523s-509.798,511.766-864,316.868c-354.202-194.898-328.759-229.921-620.24-98.163
			c-291.481,131.757-596.137-73.234-492.554-316.522c103.583-243.289,169.534-240.255,51.255-395.623
			C113.256,454.587,404,32,798,180c173.566,65.197,342.293,136.263,387,12C1229.707,67.736,1784,0,1980.458,157.103z"/>
		<g>
			<path style="fill:#7D97F4;" d="M1092.161,458.31H917.375c-21.685,0-41.722,11.569-52.564,30.348l-87.393,151.369
				c-10.842,18.779-10.842,41.917,0,60.696l87.393,151.369c10.842,18.779,30.88,30.348,52.564,30.348h174.786
				c21.684,0,41.721-11.568,52.564-30.348l87.393-151.369c10.842-18.779,10.842-41.917,0-60.696l-87.393-151.369
				C1133.882,469.879,1113.845,458.31,1092.161,458.31z"/>
			<path style="fill:#91B3FA;" d="M917.375,853.389c-11.27,0-21.771-6.062-27.406-15.822l-87.393-151.37
				c-5.634-9.76-5.634-21.886,0-31.646l87.393-151.369c5.635-9.76,16.136-15.823,27.406-15.823h174.786
				c11.27,0,21.771,6.062,27.405,15.822l87.394,151.37c5.634,9.759,5.634,21.886,0,31.646l-87.393,151.368
				c-5.635,9.76-16.136,15.823-27.406,15.823H917.375z"/>
		</g>
		<g>
			<path style="fill:#7D97F4;" d="M1480.308,696.859h-174.786c-21.684,0-41.722,11.569-52.564,30.348l-87.392,151.369
				c-10.842,18.779-10.842,41.917,0,60.696l87.392,151.369c10.842,18.779,30.88,30.348,52.564,30.348h174.786
				c21.685,0,41.722-11.568,52.564-30.348l87.393-151.369c10.842-18.779,10.842-41.917,0-60.696l-87.393-151.369
				C1522.029,708.427,1501.992,696.859,1480.308,696.859z"/>
			<path style="fill:#91B3FA;" d="M1305.522,1091.938c-11.27,0-21.771-6.062-27.406-15.822l-87.393-151.37
				c-5.634-9.76-5.634-21.886,0-31.646l87.393-151.368c5.635-9.76,16.137-15.823,27.406-15.823h174.786
				c11.27,0,21.772,6.062,27.405,15.822l87.394,151.37c5.634,9.76,5.634,21.886,0,31.646l-87.393,151.368
				c-5.635,9.76-16.136,15.823-27.406,15.823H1305.522z"/>
		</g>
		<g>
			<path style="fill:#7D97F4;" d="M1512.653,227.847h-174.786c-21.684,0-41.722,11.569-52.564,30.348l-87.392,151.369
				c-10.842,18.779-10.842,41.917,0,60.696l87.392,151.368c10.842,18.779,30.88,30.348,52.564,30.348h174.786
				c21.684,0,41.722-11.568,52.564-30.348l87.393-151.368c10.842-18.779,10.842-41.917,0-60.696l-87.393-151.369
				C1554.375,239.416,1534.338,227.847,1512.653,227.847z"/>
			<path style="fill:#91B3FA;" d="M1337.867,622.927c-11.269,0-21.771-6.062-27.406-15.822l-87.393-151.37
				c-5.634-9.76-5.634-21.886,0-31.646l87.393-151.368c5.635-9.761,16.137-15.823,27.406-15.823h174.786
				c11.27,0,21.772,6.062,27.405,15.822l87.394,151.37c5.634,9.76,5.634,21.886,0,31.646l-87.393,151.368
				c-5.634,9.76-16.136,15.823-27.406,15.823H1337.867z"/>
		</g>
		<g>
			<path style="fill:#BDD0FB;" d="M568.407,1399.032c-76.311,15.258-173.762-67.939-205.157-158.831
				c-32.308-93.535,26.929-132.719,26.472-262.512c-0.519-147.441-77.216-169.661-127.947-368.399
				c-11.446-44.839-77.684-304.32,4.412-352.957c75.906-44.97,289.116,84.09,326.486,249.276
				c26.646,117.786-55.725,167.24-24.266,304.426c27.604,120.371,100.151,122.113,127.947,238.246
				C730.193,1189.664,668.604,1378.999,568.407,1399.032z"/>
			<path style="fill:#7D97F4;" d="M562.865,1434.753c20.571-158.856-19.56-403.932-56.848-581.554
				c-40.37-192.305-86.19-349.165-86.648-350.728l-6.351,1.864c0.458,1.56,46.215,158.211,86.532,350.271
				c37.178,177.104,77.202,421.371,56.75,579.298L562.865,1434.753z"/>
		</g>
		<g>
			<path style="fill:#91B3FA;" d="M478.553,1399.788c86.523-45.082,116.139-199.891,66.956-250.204
				c-33.232-33.996-80.888,1.762-126.864-33.478c-58.7-44.993-15.519-129.732-61.67-239.632
				C317.7,782.949,223.492,694.45,168.441,712.608c-57.627,19.008-87.979,160.041-38.764,244.918
				c32.005,55.197,80.996,57.908,91.624,109.244c12.332,59.568-47.249,86.734-47.574,144.484
				C173.143,1314.992,364.089,1459.429,478.553,1399.788z"/>
			<path style="fill:#7D97F4;" d="M431.863,1439.434c0.516,0,1.04-0.114,1.536-0.355c1.751-0.85,2.482-2.958,1.632-4.708
				c-114.706-236.365-148.342-510.568-148.669-513.31c-0.23-1.933-1.986-3.315-3.916-3.083c-1.932,0.23-3.313,1.983-3.082,3.915
				c0.328,2.754,34.108,278.135,149.326,515.554C429.299,1438.703,430.555,1439.434,431.863,1439.434z"/>
			<path style="fill:#BDD0FB;" d="M196.527,992.072c0.362,0,0.727-0.117,1.034-0.355c0.733-0.572,0.865-1.63,0.294-2.364
				c-36.207-46.475-76.335-116.296-61.89-185.006c8.602-40.921,32.817-62.264,33.061-62.475c0.703-0.608,0.78-1.671,0.172-2.375
				c-0.61-0.704-1.674-0.781-2.376-0.171c-1.03,0.89-25.319,22.305-34.154,64.328c-8.12,38.622-3.862,102.55,62.528,187.768
				C195.529,991.848,196.026,992.072,196.527,992.072z"/>
			<path style="fill:#F0F0F0;" d="M486.354,1379.147c0.537,0,1.065-0.256,1.391-0.732c55.642-81.207,74.617-143.954,56.395-186.497
				c-16.2-37.824-57.103-44.864-57.515-44.931c-0.92-0.143-1.782,0.476-1.932,1.393c-0.149,0.916,0.474,1.783,1.391,1.932
				c0.393,0.064,39.53,6.849,54.976,42.972c17.707,41.415-1.166,103.06-56.095,183.226c-0.526,0.768-0.331,1.816,0.437,2.342
				C485.694,1379.052,486.025,1379.147,486.354,1379.147z"/>
		</g>
		<g>
			
				<linearGradient id="SVGID_00000055668888884086747910000006975324548757303465_" gradientUnits="userSpaceOnUse" x1="952.8038" y1="2115.835" x2="223.7316" y2="2571.8806" gradientTransform="matrix(0.9764 -0.2161 0.2161 0.9764 -991.4465 130.6689)">
				<stop  offset="0" style="stop-color:#FE7062"/>
				<stop  offset="1" style="stop-color:#FF928E"/>
			</linearGradient>
			<path style="fill:url(#SVGID_00000055668888884086747910000006975324548757303465_);" d="M1371.387,1226.982
				c-131.447,37.523-190.281-332.414-189.753-341.411L980.097,1121.21c0,0,120.083,211.302,301.411,233.792
				c45.877,5.689,84.898-2.248,117.632-17.243C1375.024,1298.263,1369.514,1259.252,1371.387,1226.982z"/>
			
				<linearGradient id="SVGID_00000127028567018672759710000013776788040751067269_" gradientUnits="userSpaceOnUse" x1="2062.6909" y1="1597.3687" x2="2422.3752" y2="1597.3687" gradientTransform="matrix(0.9764 -0.2161 0.2161 0.9764 -991.4465 130.6689)">
				<stop  offset="0" style="stop-color:#FF928E"/>
				<stop  offset="1" style="stop-color:#FEB3B1"/>
			</linearGradient>
			<path style="fill:url(#SVGID_00000127028567018672759710000013776788040751067269_);" d="M1614.808,1105.898
				c-57.289-23.543-105.888,23.44-105.888,23.44c-56.769,58.106-101.791,87.44-137.534,97.644
				c-1.873,32.27,3.637,71.281,27.754,110.777c70.825-32.446,112.111-98.04,129.116-130.772
				c6.122-11.784,20.479-16.774,32.432-10.993c12.144,5.872,24.658,14.828,25.442,26.995c1.545,23.995,30.099,25.41,30.266,16.548
				c0.166-8.863-22.112-56.253-22.112-56.253s65.826,42.224,91.448,58.375c25.623,16.153,47.447-10.503,47.447-10.503
				S1672.098,1129.443,1614.808,1105.898z"/>
			
				<linearGradient id="SVGID_00000062193603868614456760000002694207090408723902_" gradientUnits="userSpaceOnUse" x1="649.1422" y1="1144.6564" x2="-79.9308" y2="1600.7025">
				<stop  offset="0" style="stop-color:#FE7062"/>
				<stop  offset="1" style="stop-color:#FF928E"/>
			</linearGradient>
			<path style="fill:url(#SVGID_00000062193603868614456760000002694207090408723902_);" d="M553.046,733.347
				c0,0,176.64-120.508,603.261,97.438c0,0,43.934,55.694,23.353,118.477c-20.58,62.785-273.882,352.938-283.724,512.456
				c0,0-173.156,101.925-397.93,0.877C498.007,1462.595,422.629,1091.025,553.046,733.347z"/>
			
				<linearGradient id="SVGID_00000183947392186147225250000003561682348259120312_" gradientUnits="userSpaceOnUse" x1="1663.4126" y1="962.8124" x2="1902.0548" y2="962.8124" gradientTransform="matrix(0.9764 -0.2161 0.2161 0.9764 -991.4465 130.6689)">
				<stop  offset="0" style="stop-color:#FF928E"/>
				<stop  offset="1" style="stop-color:#FEB3B1"/>
			</linearGradient>
			<path style="fill:url(#SVGID_00000183947392186147225250000003561682348259120312_);" d="M920.873,579.276l-69.807,136.787
				c-6.932,13.581-5.483,30.018,4.029,41.935c19.224,24.084,59.352,56.456,127.837,35.592c20.372-6.207,35.962-22.78,40.874-43.504
				l36.185-152.68L920.873,579.276z"/>
			
				<linearGradient id="SVGID_00000011709427907304391510000001465896211033243059_" gradientUnits="userSpaceOnUse" x1="538.1637" y1="967.2363" x2="-190.91" y2="1423.2828">
				<stop  offset="0" style="stop-color:#FE7062"/>
				<stop  offset="1" style="stop-color:#FF928E"/>
			</linearGradient>
			<path style="fill:url(#SVGID_00000011709427907304391510000001465896211033243059_);" d="M422.237,1210.993
				c-11.956-83.15,207.764-244.309,207.764-244.309l-76.955-233.338c0,0-419.275,299.209-331.101,543.557
				c12.641,35.029,31.493,60.548,54.482,78.634C320.826,1264.48,381.039,1226.637,422.237,1210.993z"/>
			
				<linearGradient id="SVGID_00000124857441598335913180000008935296830218371259_" gradientUnits="userSpaceOnUse" x1="912.6093" y1="898.8997" x2="726.5909" y2="1180.9279">
				<stop  offset="0" style="stop-color:#FF928E"/>
				<stop  offset="1" style="stop-color:#FEB3B1"/>
			</linearGradient>
			<path style="fill:url(#SVGID_00000124857441598335913180000008935296830218371259_);" d="M728.772,1234.066
				c0,0-248.549,69.42-300.115-6.239c-3.497-5.133-5.55-10.785-6.42-16.834c-41.199,15.644-101.411,53.487-145.811,144.545
				c118.009,92.837,345.545-11.231,407.369-42.427c10.17-5.132,21.864-6.133,32.739-2.741c21.988,6.862,60.091,17.516,81.321,16.35
				c31.057-1.706,64.394,110.531,117.252,82.118C915.108,1408.838,891.083,1217.079,728.772,1234.066z"/>
			<g>
				
					<linearGradient id="SVGID_00000100345076397191278500000011104650168811293060_" gradientUnits="userSpaceOnUse" x1="1562.6603" y1="600.7277" x2="1220.6257" y2="600.7277">
					<stop  offset="0" style="stop-color:#FF928E"/>
					<stop  offset="1" style="stop-color:#FEB3B1"/>
				</linearGradient>
				<path style="fill:url(#SVGID_00000100345076397191278500000011104650168811293060_);" d="M1191.033,497.661
					c0.16,3.93-77.725,252.058-77.725,252.058l-140.733-47.482l38.88-246.142C1011.454,456.095,1188.37,431.864,1191.033,497.661z"
					/>
				
					<linearGradient id="SVGID_00000137842630593773042830000001431044502640141211_" gradientUnits="userSpaceOnUse" x1="1438.1995" y1="-446.8903" x2="1794.5765" y2="-446.8903" gradientTransform="matrix(0.9992 -0.0404 0.0404 0.9992 -510.2153 1110.7294)">
					<stop  offset="0" style="stop-color:#09005D"/>
					<stop  offset="1" style="stop-color:#1A0F91"/>
				</linearGradient>
				<path style="fill:url(#SVGID_00000137842630593773042830000001431044502640141211_);" d="M1038.171,514.596l-30.614,127.971
					c-0.393,1.641-0.561,3.285-0.495,4.971c0.404,10.321,4.397,45.726,40.37,39.432c32.643-5.71,62.519-10.436,81.97-2.219
					c8.733,3.69,13.232,13.386,10.39,22.431c-7.082,22.542-23.981,73.045-45.356,114.681c-4.338,8.449-14.456,12.077-23.252,8.496
					c-26.507-10.789-81.774-35.105-121.655-65.083c-5.404-4.062-8.189-10.682-7.211-17.371
					c4.762-32.612,18.87-131.786,18.526-160.029c-0.323-26.509-30.854-45.522-44.242-52.592c-4.389-2.318-7.607-6.296-8.963-11.071
					c-4.796-16.877-9.842-55.309,39.016-65.801c10.225-2.196,16.541-12.325,14.035-22.478c-4.989-20.215-4.872-50.265,33.389-62.88
					c38.889-12.822,64.603,9.859,77.931,27.508c5.388,7.137,15.012,9.133,23.022,5.157c4.56-2.263,10.167-2.582,16.402,2.257
					c8.402,6.521,20.685,3.935,26.3-5.096c10.788-17.351,30.948-35.05,66.694-25.062c63.431,17.724,63.359,90.032,41.998,130.204
					c-21.362,40.173-89.04,17.048-121.637-7.68c-24.784-18.802-60.823-5.497-76.675,1.962
					C1043.092,504.668,1039.462,509.199,1038.171,514.596z"/>
				
					<linearGradient id="SVGID_00000013898323830120823400000006139508394221920387_" gradientUnits="userSpaceOnUse" x1="1229.098" y1="-229.5351" x2="1468.3928" y2="-475.0452" gradientTransform="matrix(0.9992 -0.0404 0.0404 0.9992 -510.2153 1110.7294)">
					<stop  offset="0" style="stop-color:#FF928E"/>
					<stop  offset="1" style="stop-color:#FEB3B1"/>
				</linearGradient>
				<path style="fill:url(#SVGID_00000013898323830120823400000006139508394221920387_);" d="M950.162,634.581
					c0,0,34.218-71.596,8.824-92.615c-25.394-21.02-66.763-15.738-63.428,39.031C899.707,649.121,950.162,634.581,950.162,634.581z"
					/>
			</g>
		</g>
		<g>
			<path style="fill:#BDD0FB;" d="M195.621,1417.473c-1.151-7.553,0.416-15.366,4.272-21.301c3.856-5.935,9.597-9.372,15.658-9.372
				h2052.466c7.968,0,15.386,5.157,19.679,13.683c4.293,8.525,4.868,19.239,1.527,28.425l-22.242,61.13
				c-5.093,14-16.128,22.963-28.272,22.963H229.633c-11.296,0-21.005-10.172-23.15-24.257L195.621,1417.473z"/>
		</g>
		<g style="opacity:0.76;">
			<path style="fill:#FFFFFF;" d="M712.611,1033.544c-13.815,0-25.716-10.307-27.51-24.188
				c-12.143-93.99-73.451-568.201-87.897-674.002c-1.058-7.743,1.219-15.616,6.246-21.598c5.029-5.985,12.396-9.586,20.212-9.879
				l788.177-29.532c7.604-0.299,14.811,2.465,20.291,7.743c5.48,5.279,8.499,12.378,8.499,19.988v657.525
				c0,14.569-11.388,26.732-25.924,27.691l-700.254,46.191C713.834,1033.523,713.22,1033.544,712.611,1033.544z M1412.89,291.799
				c-0.132,0-0.265,0.002-0.397,0.008l-788.177,29.533c-2.94,0.111-5.599,1.41-7.489,3.659c-1.886,2.245-2.708,5.083-2.31,7.992l0,0
				c14.454,105.861,75.769,580.128,87.914,674.127c0.693,5.362,5.458,9.296,10.869,8.93l700.255-46.191
				c5.384-0.355,9.602-4.859,9.602-10.256V302.076c0-2.818-1.118-5.447-3.147-7.402
				C1418.074,292.811,1415.56,291.799,1412.89,291.799z"/>
			
				<rect x="1560.032" y="899.093" transform="matrix(0.4851 -0.8745 0.8745 0.4851 -113.4547 1909.6807)" style="fill:#FFFFFF;" width="9.709" height="304.176"/>
			<path style="fill:#FFFFFF;" d="M1013.08,1098.543c-13.868,0-25.764-10.341-27.51-24.29
				c-12.408-99.079-53.777-429.096-65.178-515.885l0,0c-1.013-7.715,1.284-15.549,6.3-21.496c5.02-5.951,12.362-9.536,20.144-9.836
				l584.373-22.595c7.62-0.295,14.824,2.452,20.312,7.731c5.489,5.28,8.511,12.383,8.511,19.999v503.28
				c0,14.539-11.362,26.702-25.866,27.688l-519.178,35.338C1014.349,1098.521,1013.712,1098.543,1013.08,1098.543z M937.717,556.093
				c11.407,86.838,52.782,416.9,65.192,515.99c0.676,5.398,5.473,9.308,10.893,8.963l519.178-35.338
				c5.372-0.366,9.58-4.871,9.58-10.256v-503.28c0-2.82-1.12-5.451-3.152-7.407c-2.031-1.956-4.701-2.955-7.522-2.863
				l-584.373,22.595c-2.927,0.113-5.577,1.407-7.464,3.643C938.164,550.372,937.336,553.196,937.717,556.093L937.717,556.093z"/>
			
				<rect x="1145.517" y="32.238" transform="matrix(0.5792 -0.8152 0.8152 0.5792 -88.7239 1233.4794)" style="fill:#FFFFFF;" width="9.707" height="1340.876"/>
			
				<rect x="1151.342" y="661.828" transform="matrix(0.2304 -0.9731 0.9731 0.2304 -213.4003 1997.5603)" style="fill:#FFFFFF;" width="9.707" height="943.736"/>
			
				<rect x="1599.349" y="245.113" transform="matrix(0.8896 -0.4566 0.4566 0.8896 -113.0394 802.6472)" style="fill:#FFFFFF;" width="9.708" height="780.191"/>
		</g>
		<g>
			
				<linearGradient id="SVGID_00000044139134875782028800000003673657968526621885_" gradientUnits="userSpaceOnUse" x1="10402.1279" y1="1840.9105" x2="9934.2852" y2="1969.1338" gradientTransform="matrix(-0.9988 -0.0494 -0.0494 0.9988 11428.2119 -86.798)">
				<stop  offset="0" style="stop-color:#09005D"/>
				<stop  offset="1" style="stop-color:#1A0F91"/>
			</linearGradient>
			<path style="fill:url(#SVGID_00000044139134875782028800000003673657968526621885_);" d="M1046.141,1392.32
				c0.443,0.022,0.888,0.033,1.336,0.03l580.663-0.634c14.354-0.012,25.978-11.661,25.963-26.016
				c-0.014-14.359-11.705-26.221-26.02-25.963l-580.663,0.633c-14.354,0.012-25.978,11.661-25.963,26.015
				C1021.471,1380.293,1032.407,1391.64,1046.141,1392.32z"/>
			
				<linearGradient id="SVGID_00000148640778898462229080000014746673723676961440_" gradientUnits="userSpaceOnUse" x1="2087.3291" y1="1557.4117" x2="1676.2867" y2="1011.3552">
				<stop  offset="0" style="stop-color:#09005D"/>
				<stop  offset="1" style="stop-color:#1A0F91"/>
			</linearGradient>
			<path style="fill:url(#SVGID_00000148640778898462229080000014746673723676961440_);" d="M2150.128,865.114h-483.579
				c-35.674,0-68.144,20.586-83.36,52.853l-223.558,474.042h600.96c22.989,0,43.644-14.046,52.093-35.427l173.36-438.656
				C2196.061,892.581,2177.382,865.114,2150.128,865.114z"/>
			<path style="fill:#7D97F4;" d="M1809.441,1108.17c-10.479,32.557-2.738,64.177,17.291,70.623
				c20.029,6.447,44.76-14.72,55.24-47.278c10.479-32.558,2.738-64.177-17.29-70.624
				C1844.653,1054.445,1819.921,1075.612,1809.441,1108.17z"/>
		</g>
		<g>
			<g>
				<path style="fill:#91B3FA;" d="M1805.501,532.478c-0.037,5.665-4.66,10.228-10.325,10.19c-5.665-0.037-10.228-4.66-10.19-10.326
					c0.037-5.665,4.66-10.227,10.325-10.19C1800.977,522.19,1805.539,526.813,1805.501,532.478z"/>
				<path style="fill:#91B3FA;" d="M1805.16,532.476c-0.036,5.477-4.505,9.888-9.982,9.851c-5.477-0.036-9.888-4.505-9.852-9.982
					c0.036-5.477,4.505-9.888,9.982-9.852C1800.786,522.53,1805.197,526.999,1805.16,532.476z"/>
			</g>
			<g>
				<path style="fill:#91B3FA;" d="M1805.501,594.663c-0.037,5.665-4.66,10.228-10.325,10.19c-5.665-0.037-10.228-4.66-10.19-10.325
					c0.037-5.665,4.66-10.227,10.325-10.19C1800.977,584.375,1805.539,588.998,1805.501,594.663z"/>
				<path style="fill:#91B3FA;" d="M1805.16,594.661c-0.036,5.477-4.505,9.888-9.982,9.851c-5.477-0.036-9.888-4.505-9.852-9.982
					c0.036-5.477,4.505-9.888,9.982-9.851C1800.786,584.715,1805.197,589.184,1805.16,594.661z"/>
			</g>
			<g>
				<path style="fill:#91B3FA;" d="M1805.501,656.849c-0.037,5.665-4.66,10.227-10.325,10.19c-5.665-0.037-10.228-4.66-10.19-10.326
					s4.66-10.227,10.325-10.19C1800.977,646.561,1805.539,651.183,1805.501,656.849z"/>
				<path style="fill:#91B3FA;" d="M1805.16,656.847c-0.036,5.477-4.505,9.887-9.982,9.851c-5.477-0.036-9.888-4.505-9.852-9.982
					c0.036-5.477,4.505-9.888,9.982-9.851C1800.786,646.901,1805.197,651.37,1805.16,656.847z"/>
			</g>
			<path style="fill:#91B3FA;" d="M1821.282,531.944l0.047,1.747c0.128,4.73,3.082,8.482,6.692,8.501l274.745,0.416
				c3.728,0.019,6.755-3.941,6.749-8.828l0,0c-0.006-4.792-2.932-8.699-6.587-8.796l-274.792-2.163
				C1824.277,522.718,1821.145,526.888,1821.282,531.944z"/>
			<path style="fill:#91B3FA;" d="M1821.282,593.826l0.047,1.747c0.128,4.729,3.082,8.482,6.692,8.501l274.745,0.416
				c3.728,0.019,6.755-3.941,6.749-8.828l0,0c-0.006-4.792-2.932-8.7-6.587-8.796l-274.792-2.164
				C1824.277,584.601,1821.145,588.769,1821.282,593.826z"/>
			<path style="fill:#91B3FA;" d="M1821.282,655.708l0.047,1.747c0.128,4.73,3.082,8.482,6.692,8.501l274.745,0.416
				c3.728,0.019,6.755-3.941,6.749-8.828l0,0c-0.006-4.792-2.932-8.7-6.587-8.796l-274.792-2.164
				C1824.277,646.483,1821.145,650.652,1821.282,655.708z"/>
		</g>
		<g>
			<path style="fill:#91B3FA;" d="M2122.508,441.267h-365.743c-1.116,0-2.021-0.905-2.021-2.021V212.93
				c0-1.116,0.905-2.021,2.021-2.021h365.743c1.116,0,2.021,0.905,2.021,2.021v226.316
				C2124.529,440.362,2123.624,441.267,2122.508,441.267z M1758.785,437.226h361.702V214.951h-361.702V437.226z"/>
			<g>
				<path style="fill:#91B3FA;" d="M1948.393,407.589c-73.832,0-132.247-67.303-134.698-70.168c-2.264-2.646-2.264-6.547,0-9.194
					c2.451-2.865,60.866-70.168,134.698-70.168c73.832,0,132.247,67.303,134.698,70.168c2.264,2.646,2.264,6.547,0,9.194
					C2080.64,340.286,2022.225,407.589,1948.393,407.589z M1828.688,332.824c5.822,6.061,17.332,17.251,32.681,28.316
					c20.444,14.737,52.136,32.304,87.023,32.304c34.887,0,66.58-17.567,87.023-32.304c15.349-11.065,26.859-22.255,32.681-28.316
					c-5.82-6.059-17.331-17.25-32.681-28.316c-20.444-14.737-52.136-32.304-87.023-32.304c-34.887,0-66.58,17.568-87.023,32.304
					C1846.02,315.573,1834.511,326.763,1828.688,332.824z M1819.069,332.824h0.02H1819.069z"/>
				<path style="fill:#91B3FA;" d="M1948.393,393.444c-33.426,0-60.62-27.194-60.62-60.62s27.194-60.62,60.62-60.62
					c33.426,0,60.62,27.194,60.62,60.62S1981.819,393.444,1948.393,393.444z M1948.393,286.348
					c-25.627,0-46.476,20.849-46.476,46.476c0,25.626,20.849,46.476,46.476,46.476c25.626,0,46.476-20.849,46.476-46.476
					C1994.869,307.198,1974.019,286.348,1948.393,286.348z"/>
				
					<ellipse transform="matrix(0.9726 -0.2327 0.2327 0.9726 -23.9661 462.463)" style="fill:#91B3FA;" cx="1948.393" cy="332.824" rx="29.3" ry="29.3"/>
			</g>
		</g>
		<path style="fill:#BDD0FB;" d="M1966.047,843.144c-1.674,0-3.031-1.358-3.031-3.031V717.862h-229.347
			c-1.674,0-3.031-1.357-3.031-3.031V494.577c0-1.674,1.357-3.031,3.031-3.031s3.031,1.357,3.031,3.031V711.8h229.347
			c1.674,0,3.031,1.357,3.031,3.031v125.282C1969.078,841.787,1967.721,843.144,1966.047,843.144z"/>
		<g>
			<g>
				<path style="fill:#BDD0FB;" d="M607.841,892.159c0.037,5.665,4.66,10.228,10.326,10.19c5.665-0.037,10.227-4.66,10.19-10.326
					c-0.037-5.665-4.66-10.227-10.326-10.19C612.365,881.871,607.803,886.494,607.841,892.159z"/>
				<path style="fill:#BDD0FB;" d="M608.182,892.157c0.036,5.477,4.505,9.888,9.982,9.851c5.477-0.036,9.888-4.505,9.852-9.982
					c-0.036-5.477-4.505-9.888-9.982-9.852C612.556,882.211,608.145,886.68,608.182,892.157z"/>
			</g>
			<g>
				<path style="fill:#BDD0FB;" d="M607.841,954.344c0.037,5.665,4.66,10.228,10.326,10.19s10.227-4.66,10.19-10.325
					c-0.037-5.665-4.66-10.228-10.326-10.19C612.365,944.056,607.803,948.679,607.841,954.344z"/>
				<path style="fill:#BDD0FB;" d="M608.182,954.342c0.036,5.477,4.505,9.888,9.982,9.851c5.477-0.036,9.888-4.505,9.852-9.982
					c-0.036-5.477-4.505-9.888-9.982-9.851C612.556,944.396,608.145,948.865,608.182,954.342z"/>
			</g>
			<g>
				<path style="fill:#BDD0FB;" d="M607.841,1016.53c0.037,5.665,4.66,10.227,10.326,10.19s10.227-4.66,10.19-10.326
					c-0.037-5.665-4.66-10.227-10.326-10.19C612.365,1006.242,607.803,1010.865,607.841,1016.53z"/>
				<path style="fill:#BDD0FB;" d="M608.182,1016.528c0.036,5.477,4.505,9.887,9.982,9.851c5.477-0.036,9.888-4.505,9.852-9.982
					c-0.036-5.477-4.505-9.888-9.982-9.851C612.556,1006.581,608.145,1011.051,608.182,1016.528z"/>
			</g>
			<path style="fill:#BDD0FB;" d="M592.06,891.625l-0.047,1.747c-0.128,4.73-3.082,8.482-6.692,8.501l-274.745,0.416
				c-3.728,0.019-6.755-3.941-6.749-8.828l0,0c0.006-4.792,2.932-8.699,6.587-8.796l274.792-2.163
				C589.065,882.399,592.197,886.569,592.06,891.625z"/>
			<path style="fill:#BDD0FB;" d="M592.06,953.507l-0.047,1.747c-0.128,4.729-3.082,8.482-6.692,8.501l-274.745,0.417
				c-3.728,0.019-6.755-3.941-6.749-8.828l0,0c0.006-4.792,2.932-8.7,6.587-8.796l274.792-2.164
				C589.065,944.282,592.197,948.451,592.06,953.507z"/>
			<path style="fill:#BDD0FB;" d="M592.06,1015.39l-0.047,1.747c-0.128,4.73-3.082,8.482-6.692,8.501l-274.745,0.416
				c-3.728,0.019-6.755-3.941-6.749-8.828l0,0c0.006-4.792,2.932-8.7,6.587-8.796l274.792-2.164
				C589.065,1006.164,592.197,1010.333,592.06,1015.39z"/>
		</g>
		<g>
			<g>
				<path style="fill:#7D97F4;" d="M409.716,448.153c-0.61,0-1.213-0.274-1.61-0.797c-0.676-0.888-0.503-2.156,0.385-2.832
					c2.159-1.643,4.398-3.25,6.655-4.775c0.923-0.626,2.182-0.384,2.805,0.542c0.625,0.924,0.383,2.181-0.542,2.805
					c-2.194,1.485-4.372,3.048-6.471,4.645C410.573,448.019,410.143,448.153,409.716,448.153z"/>
				<path style="fill:#7D97F4;" d="M646.066,568c-0.012,0-0.024,0-0.036,0c-1.116-0.02-2.005-0.94-1.986-2.055
					c0.015-0.844,0.023-1.686,0.023-2.53c0-4.17-0.185-8.393-0.548-12.555c-0.098-1.112,0.725-2.092,1.837-2.188
					c1.109-0.115,2.092,0.726,2.188,1.837c0.374,4.278,0.563,8.62,0.563,12.906c0,0.867-0.008,1.734-0.023,2.599
					C648.066,567.118,647.165,568,646.066,568z M641.282,528.22c-0.898,0-1.717-0.602-1.954-1.51
					c-0.492-1.881-1.023-3.759-1.594-5.636c-0.893-2.934-1.891-5.88-2.968-8.756c-0.392-1.045,0.139-2.209,1.184-2.601
					c1.042-0.39,2.209,0.138,2.601,1.184c1.106,2.954,2.132,5.981,3.049,8.996c0.587,1.928,1.134,3.858,1.638,5.79
					c0.282,1.079-0.364,2.184-1.443,2.466C641.622,528.198,641.45,528.22,641.282,528.22z M626.022,491.179
					c-0.696,0-1.372-0.359-1.748-1.003c-2.523-4.333-5.304-8.581-8.266-12.625c-0.66-0.9-0.465-2.165,0.436-2.824
					c0.901-0.66,2.165-0.465,2.824,0.436c3.046,4.158,5.905,8.525,8.499,12.978c0.561,0.965,0.235,2.202-0.729,2.764
					C626.716,491.091,626.367,491.179,626.022,491.179z M601.31,459.654c-0.506,0-1.013-0.188-1.405-0.568
					c-3.599-3.484-7.426-6.819-11.373-9.913c-0.878-0.689-1.032-1.959-0.343-2.838c0.69-0.877,1.961-1.03,2.838-0.343
					c4.056,3.181,7.99,6.609,11.689,10.189c0.802,0.777,0.823,2.055,0.047,2.857C602.366,459.448,601.838,459.654,601.31,459.654z
					 M569.004,435.967c-0.326,0-0.655-0.078-0.961-0.245c-4.411-2.391-8.994-4.577-13.623-6.498
					c-1.031-0.428-1.519-1.61-1.092-2.641c0.429-1.03,1.609-1.516,2.641-1.092c4.757,1.974,9.467,4.222,14,6.68
					c0.981,0.532,1.346,1.758,0.813,2.739C570.417,435.584,569.721,435.967,569.004,435.967z M437.974,431.316
					c-0.77,0-1.505-0.442-1.842-1.189c-0.46-1.017-0.009-2.214,1.008-2.674c4.681-2.117,9.541-4.02,14.445-5.655
					c1.061-0.358,2.203,0.22,2.557,1.278c0.353,1.059-0.219,2.203-1.278,2.556c-4.773,1.59-9.503,3.442-14.058,5.503
					C438.536,431.258,438.253,431.316,437.974,431.316z M531.526,421.816c-0.149,0-0.301-0.016-0.453-0.051
					c-4.893-1.119-9.896-1.991-14.872-2.594c-1.108-0.134-1.897-1.141-1.763-2.249c0.135-1.108,1.154-1.891,2.249-1.763
					c5.115,0.619,10.258,1.517,15.288,2.667c1.087,0.249,1.768,1.332,1.518,2.42C533.279,421.183,532.447,421.816,531.526,421.816z
					 M476.373,419.87c-0.979,0-1.838-0.712-1.994-1.71c-0.172-1.103,0.583-2.136,1.686-2.308c5.097-0.792,10.29-1.325,15.435-1.582
					c1.102-0.037,2.064,0.802,2.118,1.917c0.056,1.115-0.802,2.063-1.917,2.118c-5.005,0.251-10.057,0.769-15.015,1.54
					C476.581,419.862,476.477,419.87,476.373,419.87z"/>
				<path style="fill:#7D97F4;" d="M641.776,600.693c-0.162,0-0.326-0.019-0.489-0.059c-1.082-0.269-1.742-1.365-1.474-2.449
					c0.635-2.556,1.209-5.175,1.705-7.781c0.208-1.096,1.266-1.816,2.363-1.607c1.096,0.209,1.815,1.267,1.607,2.363
					c-0.51,2.679-1.099,5.37-1.752,8C643.506,600.079,642.682,600.693,641.776,600.693z"/>
			</g>
			<g>
				<path style="fill:#7D97F4;" d="M570.784,693.855c-0.708,0-1.395-0.373-1.766-1.034c-0.545-0.975-0.196-2.206,0.779-2.751
					c2.314-1.294,4.618-2.666,6.846-4.079c0.942-0.598,2.191-0.32,2.788,0.626c0.597,0.941,0.318,2.19-0.625,2.788
					c-2.29,1.452-4.658,2.863-7.038,4.193C571.456,693.773,571.117,693.855,570.784,693.855z"/>
				<path style="fill:#7D97F4;" d="M499.016,712.64c-4.944,0.026-9.799-0.229-14.661-0.705c-1.111-0.109-1.923-1.097-1.814-2.208
					c0.107-1.109,1.08-1.91,2.207-1.813c4.729,0.462,9.545,0.703,14.262,0.685c0.844,0,1.683-0.01,2.525-0.026
					c1.162-0.022,2.037,0.868,2.059,1.983c0.021,1.115-0.866,2.036-1.982,2.058C500.746,712.63,499.881,712.64,499.016,712.64z
					 M529.042,709.476c-0.935,0-1.774-0.653-1.975-1.604c-0.23-1.091,0.469-2.163,1.56-2.394c4.188-0.884,8.391-1.965,12.491-3.215
					c1.249-0.381,2.491-0.775,3.724-1.186c1.056-0.355,2.203,0.217,2.556,1.277c0.353,1.058-0.219,2.202-1.278,2.555
					c-1.264,0.422-2.54,0.829-3.823,1.22c-4.214,1.285-8.533,2.396-12.835,3.303C529.32,709.462,529.18,709.476,529.042,709.476z
					 M457.411,706.672c-0.189,0-0.381-0.026-0.571-0.083c-5.502-1.618-10.97-3.576-16.253-5.817c-1.027-0.436-1.507-1.622-1.07-2.65
					s1.623-1.506,2.649-1.072c5.141,2.183,10.462,4.087,15.815,5.664c1.071,0.314,1.683,1.439,1.368,2.508
					C459.09,706.102,458.285,706.672,457.411,706.672z M417.047,687.801c-0.386,0-0.775-0.11-1.12-0.339
					c-4.77-3.183-9.405-6.68-13.779-10.39c-0.851-0.722-0.955-1.997-0.234-2.849c0.721-0.849,1.996-0.955,2.848-0.233
					c4.255,3.611,8.766,7.013,13.408,10.109c0.928,0.62,1.178,1.875,0.558,2.802C418.341,687.485,417.7,687.801,417.047,687.801z
					 M384.162,657.767c-0.59,0-1.175-0.257-1.575-0.753c-3.6-4.467-6.976-9.193-10.032-14.047c-0.595-0.944-0.311-2.191,0.633-2.786
					c0.945-0.591,2.192-0.312,2.786,0.633c2.974,4.722,6.257,9.319,9.759,13.664c0.701,0.868,0.564,2.141-0.305,2.842
					C385.056,657.621,384.607,657.767,384.162,657.767z M361.81,619.235c-0.808,0-1.57-0.487-1.883-1.285
					c-1.427-3.64-2.726-7.383-3.864-11.125c-0.535-1.756-1.036-3.517-1.504-5.278c-0.285-1.078,0.357-2.185,1.436-2.472
					c1.081-0.286,2.185,0.358,2.472,1.436c0.454,1.714,0.941,3.427,1.462,5.137c1.108,3.643,2.373,7.286,3.761,10.828
					c0.407,1.039-0.106,2.211-1.145,2.619C362.304,619.19,362.055,619.235,361.81,619.235z M351.947,575.781
					c-1.051,0-1.937-0.812-2.014-1.877c-0.251-3.516-0.38-7.082-0.38-10.596c0-2.218,0.05-4.462,0.15-6.668
					c0.051-1.116,1.034-1.974,2.109-1.928c1.115,0.05,1.978,0.995,1.928,2.109c-0.097,2.146-0.146,4.328-0.146,6.486
					c0,3.418,0.124,6.886,0.37,10.308c0.08,1.113-0.758,2.08-1.872,2.16C352.045,575.779,351.996,575.781,351.947,575.781z"/>
				<path style="fill:#7D97F4;" d="M355.594,531.291c-0.156,0-0.314-0.018-0.472-0.055c-1.085-0.259-1.755-1.35-1.496-2.435
					c0.632-2.645,1.346-5.306,2.12-7.909c0.319-1.07,1.443-1.677,2.513-1.361c1.069,0.319,1.679,1.443,1.361,2.513
					c-0.754,2.533-1.448,5.122-2.063,7.696C357.336,530.668,356.508,531.291,355.594,531.291z"/>
			</g>
			<g>
				<path style="fill:#7D97F4;" d="M395.333,517.771c-0.376,0.654-0.296,1.474,0.2,2.042l14.131,16.211
					c-2.888,9.619-4.263,19.768-3.917,30.097l-17.79,12.059c-0.624,0.423-0.911,1.195-0.715,1.923l6.722,24.904
					c0.197,0.728,0.833,1.251,1.585,1.303l21.441,1.47c4.898,9.101,11.193,17.179,18.529,24.039l-4.055,21.12
					c-0.142,0.74,0.201,1.489,0.854,1.865l22.363,12.857c0.654,0.376,1.474,0.296,2.042-0.2l16.211-14.131
					c9.619,2.888,19.767,4.263,30.097,3.917l12.059,17.79c0.423,0.624,1.195,0.911,1.923,0.714l24.905-6.722
					c0.728-0.196,1.251-0.833,1.302-1.585L544.69,646c9.101-4.898,17.179-11.192,24.038-18.529l21.12,4.056
					c0.74,0.142,1.489-0.201,1.865-0.855l12.857-22.363c0.376-0.654,0.296-1.474-0.2-2.042l-14.131-16.211
					c2.888-9.619,4.263-19.768,3.917-30.097l17.79-12.059c0.624-0.423,0.911-1.195,0.714-1.922l-6.722-24.905
					c-0.196-0.727-0.833-1.25-1.585-1.302l-21.441-1.469c-4.898-9.101-11.193-17.18-18.529-24.039l4.055-21.119
					c0.143-0.74-0.201-1.489-0.854-1.865l-22.363-12.857c-0.654-0.375-1.474-0.295-2.042,0.2l-16.211,14.131
					c-9.619-2.888-19.767-4.263-30.097-3.916l-12.059-17.79c-0.422-0.624-1.195-0.911-1.922-0.714l-24.904,6.722
					c-0.728,0.197-1.251,0.833-1.303,1.585l-1.47,21.441c-9.101,4.898-17.179,11.193-24.038,18.529l-21.12-4.055
					c-0.74-0.142-1.489,0.201-1.865,0.855L395.333,517.771z"/>
				<g>
					<path style="fill:#91B3FA;" d="M499.99,588.988c-2.36,0-4.735-0.326-7.069-0.983c-6.669-1.879-12.206-6.241-15.594-12.284
						c-3.387-6.042-4.219-13.043-2.341-19.712c1.878-6.669,6.24-12.207,12.283-15.594c12.48-6.992,28.314-2.531,35.307,9.943
						c6.992,12.475,2.533,28.313-9.943,35.306C508.705,587.865,504.373,588.988,499.99,588.988z M499.918,543.17
						c-3.288,0-6.619,0.816-9.685,2.535c-4.63,2.595-7.973,6.839-9.412,11.948c-1.439,5.11-0.802,10.474,1.795,15.105l0,0
						c2.596,4.63,6.839,7.973,11.948,9.413c5.112,1.438,10.473,0.802,15.105-1.795c4.63-2.595,7.973-6.839,9.412-11.948
						c1.44-5.11,0.802-10.474-1.794-15.105C513.647,546.829,506.88,543.17,499.918,543.17z"/>
				</g>
				<g>
					<path style="fill:#91B3FA;" d="M500.342,628.576c-11.271,0-22.394-2.945-32.428-8.713
						c-15.116-8.69-25.942-22.747-30.486-39.579v-0.001c-1.085-4.021-1.788-8.138-2.094-12.259
						c-0.019-0.254-0.036-0.507-0.051-0.761c-0.015-0.234-0.029-0.468-0.04-0.702l6.054-0.312c0.215,4.181,0.882,8.371,1.984,12.455
						v-0.001c7.553,27.981,34.076,45.879,61.972,43.594c3.331-0.272,6.68-0.833,10.021-1.697c0.202-0.052,0.402-0.105,0.603-0.16
						c26.373-7.118,43.788-31.078,43.79-57.177c0-5.095-0.663-10.271-2.052-15.42c-8.509-31.522-41.081-50.248-72.596-41.737
						c-10.365,2.798-19.759,8.338-27.167,16.023l-4.365-4.207c8.171-8.476,18.527-14.585,29.951-17.669
						c34.75-9.378,70.649,11.262,80.03,46.01c1.531,5.676,2.262,11.382,2.262,16.999c-0.003,28.771-19.2,55.184-48.273,63.031
						C511.798,627.82,506.051,628.576,500.342,628.576z"/>
				</g>
			</g>
		</g>
		<g>
			<g>
				<path style="fill:#7D97F4;" d="M313.12,362.174c-0.611,0-1.214-0.275-1.611-0.798c-0.675-0.888-0.502-2.156,0.387-2.832
					c2.196-1.669,4.506-3.236,6.865-4.658c0.952-0.575,2.196-0.268,2.773,0.688c0.576,0.955,0.268,2.197-0.688,2.773
					c-2.235,1.348-4.424,2.833-6.506,4.415C313.976,362.04,313.546,362.174,313.12,362.174z"/>
				<path style="fill:#7D97F4;" d="M432.166,403.673c-0.902,0-1.723-0.607-1.957-1.519c-0.275-1.073-0.575-2.146-0.901-3.217
					c-1.371-4.501-3.17-8.875-5.348-13.001c-0.521-0.987-0.143-2.209,0.844-2.73c0.989-0.523,2.209-0.143,2.73,0.844
					c2.298,4.352,4.195,8.965,5.64,13.712c0.343,1.129,0.661,2.26,0.95,3.391c0.277,1.081-0.375,2.182-1.456,2.459
					C432.5,403.653,432.332,403.673,432.166,403.673z M407.589,364.524c-0.459,0-0.92-0.155-1.298-0.474
					c-4.443-3.731-9.333-6.939-14.534-9.536c-0.999-0.498-1.404-1.712-0.905-2.71c0.497-0.997,1.71-1.407,2.71-0.905
					c5.484,2.738,10.641,6.121,15.327,10.057c0.854,0.717,0.966,1.992,0.248,2.847C408.738,364.278,408.165,364.524,407.589,364.524
					z M346.967,347.707c-0.975,0-1.833-0.707-1.993-1.699c-0.178-1.102,0.572-2.139,1.673-2.317
					c6.036-0.973,12.24-1.226,18.324-0.745c1.113,0.088,1.944,1.061,1.856,2.174c-0.089,1.112-1.048,1.938-2.174,1.856
					c-5.769-0.455-11.646-0.215-17.363,0.705C347.181,347.699,347.073,347.707,346.967,347.707z"/>
				<path style="fill:#7D97F4;" d="M432.326,440.53c-0.162,0-0.325-0.019-0.488-0.059c-1.083-0.268-1.743-1.365-1.475-2.448
					c0.629-2.536,1.128-5.134,1.482-7.721c0.152-1.106,1.173-1.883,2.276-1.728c1.106,0.152,1.88,1.17,1.728,2.276
					c-0.374,2.729-0.9,5.469-1.563,8.145C434.057,439.916,433.232,440.53,432.326,440.53z"/>
			</g>
			<g>
				<path style="fill:#7D97F4;" d="M392.376,490.215c-0.746,0-1.463-0.414-1.815-1.129c-0.492-1.001-0.08-2.212,0.922-2.705
					c2.35-1.156,4.658-2.45,6.858-3.846c0.941-0.595,2.191-0.319,2.789,0.625c0.597,0.943,0.318,2.191-0.625,2.789
					c-2.323,1.472-4.759,2.838-7.239,4.059C392.979,490.149,392.675,490.215,392.376,490.215z"/>
				<path style="fill:#7D97F4;" d="M358.87,498.035c-3.923,0-7.883-0.304-11.769-0.904c-1.103-0.17-1.86-1.202-1.689-2.305
					c0.17-1.103,1.21-1.862,2.305-1.689c5.639,0.869,11.438,1.075,17.073,0.617c1.095-0.096,2.088,0.738,2.178,1.85
					c0.091,1.112-0.737,2.087-1.85,2.178C363.054,497.95,360.953,498.035,358.87,498.035z M320.632,487.622
					c-0.347,0-0.699-0.089-1.02-0.277c-5.199-3.048-10.04-6.699-14.389-10.851c-0.807-0.771-0.837-2.049-0.066-2.856
					c0.77-0.809,2.05-0.838,2.856-0.066c4.124,3.937,8.714,7.398,13.644,10.287c0.963,0.564,1.286,1.803,0.721,2.766
					C322.001,487.264,321.325,487.622,320.632,487.622z M290.142,453.903c-0.767,0-1.5-0.439-1.839-1.182
					c-1.432-3.135-2.671-6.41-3.683-9.734c-0.743-2.438-1.371-4.931-1.869-7.41c-0.22-1.094,0.489-2.159,1.584-2.379
					c1.102-0.219,2.16,0.49,2.379,1.584c0.472,2.35,1.068,4.714,1.772,7.027c0.961,3.154,2.136,6.261,3.494,9.233
					c0.464,1.015,0.017,2.214-0.998,2.678C290.708,453.843,290.423,453.903,290.142,453.903z"/>
				<path style="fill:#7D97F4;" d="M284.505,408.726c-0.121,0-0.245-0.011-0.369-0.034c-1.097-0.202-1.822-1.256-1.62-2.354
					c0.499-2.707,1.152-5.42,1.939-8.063c0.319-1.07,1.447-1.681,2.513-1.361c1.07,0.319,1.679,1.444,1.361,2.513
					c-0.746,2.506-1.365,5.078-1.838,7.645C286.311,408.046,285.461,408.726,284.505,408.726z"/>
			</g>
			<g>
				<path style="fill:#7D97F4;" d="M305.731,396.953c-0.193,0.336-0.152,0.757,0.103,1.049l7.259,8.327
					c-1.484,4.941-2.19,10.154-2.012,15.46l-9.138,6.194c-0.321,0.217-0.468,0.614-0.367,0.988l3.453,12.793
					c0.101,0.374,0.428,0.642,0.814,0.669l11.014,0.755c2.516,4.675,5.749,8.825,9.518,12.348l-2.083,10.849
					c-0.073,0.38,0.103,0.765,0.439,0.958l11.488,6.604c0.336,0.193,0.757,0.152,1.049-0.103l8.327-7.259
					c4.941,1.484,10.154,2.19,15.46,2.012l6.194,9.139c0.217,0.32,0.614,0.468,0.988,0.367l12.793-3.453
					c0.374-0.101,0.642-0.428,0.669-0.814l0.755-11.014c4.675-2.516,8.825-5.75,12.348-9.518l10.849,2.083
					c0.38,0.073,0.765-0.103,0.958-0.439l6.604-11.488c0.193-0.336,0.152-0.757-0.103-1.049l-7.259-8.327
					c1.484-4.941,2.19-10.154,2.012-15.46l9.138-6.194c0.32-0.217,0.468-0.614,0.367-0.988l-3.453-12.793
					c-0.101-0.374-0.428-0.642-0.814-0.669l-11.014-0.755c-2.516-4.675-5.749-8.825-9.518-12.348l2.083-10.849
					c0.073-0.38-0.103-0.765-0.439-0.958l-11.488-6.604c-0.336-0.193-0.757-0.152-1.049,0.103l-8.327,7.259
					c-4.941-1.484-10.154-2.19-15.46-2.012l-6.194-9.139c-0.217-0.32-0.614-0.468-0.988-0.367l-12.793,3.453
					c-0.374,0.101-0.642,0.428-0.669,0.814l-0.755,11.014c-4.675,2.516-8.825,5.75-12.348,9.518l-10.849-2.083
					c-0.38-0.073-0.765,0.103-0.958,0.439L305.731,396.953z"/>
				<g>
					<path style="fill:#91B3FA;" d="M359.496,435.001c-5.185,0-10.222-2.724-12.932-7.559c-3.989-7.117-1.445-16.154,5.672-20.144
						c3.447-1.932,7.442-2.404,11.246-1.335c3.804,1.072,6.964,3.561,8.897,7.008c1.933,3.447,2.407,7.441,1.336,11.246
						c-1.072,3.804-3.56,6.963-7.008,8.897C364.425,434.393,361.943,435.001,359.496,435.001z M359.457,411.473
						c-1.445,0-2.909,0.358-4.257,1.114c-4.201,2.355-5.703,7.69-3.348,11.891c1.141,2.035,3.005,3.504,5.251,4.136
						c2.25,0.636,4.604,0.353,6.639-0.788c2.036-1.141,3.505-3.006,4.137-5.252c0.633-2.246,0.352-4.603-0.789-6.638
						C365.491,413.082,362.517,411.473,359.457,411.473z"/>
				</g>
				<g>
					<path style="fill:#91B3FA;" d="M359.67,455.346c-6.044,0-12.01-1.58-17.39-4.673c-8.106-4.66-13.912-12.198-16.348-21.225
						v0.001c-0.015-0.056-0.031-0.113-0.045-0.17c-0.603-2.275-0.977-4.609-1.113-6.941c-0.005-0.082-0.01-0.165-0.014-0.247
						l6.054-0.312c0.105,2.044,0.431,4.093,0.971,6.089c1.9,7.044,6.283,12.99,12.403,16.876c0.365,0.232,0.736,0.457,1.113,0.674
						c6.702,3.852,14.506,4.866,21.967,2.85c12.895-3.48,21.408-15.198,21.405-27.959c-0.001-2.486-0.326-5.013-1.003-7.526
						c-4.158-15.407-20.078-24.561-35.484-20.399c-5.066,1.367-9.657,4.074-13.277,7.83l-4.365-4.207
						c4.383-4.547,9.937-7.823,16.063-9.476c9.027-2.436,18.461-1.212,26.568,3.448c8.106,4.66,13.912,12.197,16.349,21.224
						c0.821,3.044,1.214,6.105,1.213,9.116c-0.001,15.429-10.296,29.594-25.886,33.802
						C365.814,454.941,362.732,455.346,359.67,455.346z"/>
				</g>
			</g>
		</g>
		<g>
			
				<linearGradient id="SVGID_00000010272544804790546540000000766712608721127046_" gradientUnits="userSpaceOnUse" x1="1915.8218" y1="1267.307" x2="2029.8217" y2="1457.3063">
				<stop  offset="0" style="stop-color:#FF928E"/>
				<stop  offset="1" style="stop-color:#FEB3B1"/>
			</linearGradient>
			<path style="fill:url(#SVGID_00000010272544804790546540000000766712608721127046_);" d="M1874.856,1401.512
				c0.177-0.068,95.255-166.572,108.103-182.242c2.162-2.635,5.507-3.977,8.892-3.574l26.538,3.162l31.176,67.446l-51.939-30.249
				c5.139,35.545-61.583,88.368-84.466,107.642c-2.322,1.957-2.513,5.46-0.416,7.655l9.135,9.563
				c-14.998,15.203-32.305,24.965-51.838,29.48L1874.856,1401.512z"/>
			
				<linearGradient id="SVGID_00000181079691035471062230000001657830576311785119_" gradientUnits="userSpaceOnUse" x1="-3053.0869" y1="-1986.0175" x2="-3064.594" y2="-1809.5759" gradientTransform="matrix(0.8974 -0.4412 0.4412 0.8974 5487.7329 1782.8086)">
				<stop  offset="0" style="stop-color:#4042E2"/>
				<stop  offset="1" style="stop-color:#4F52FF"/>
			</linearGradient>
			<path style="fill:url(#SVGID_00000181079691035471062230000001657830576311785119_);" d="M1916.594,1375.755
				c0,0,5.83,1.884,7.805,7.076c0.944,2.485-0.074,5.298-2.234,6.847c-9.601,6.878-41.269,29.085-55.883,33.434
				c-1.198,0.356-2.338-0.727-2.068-1.948c0.75-3.395,3.176-10.174,10.991-20.099l-0.701,1.418
				c-0.887,1.795,1.067,3.664,2.811,2.679C1887.089,1399.646,1906.998,1387.568,1916.594,1375.755z"/>
			
				<linearGradient id="SVGID_00000010301459465765613950000012034119194667547818_" gradientUnits="userSpaceOnUse" x1="2198.5405" y1="1299.1984" x2="2093.5405" y2="1318.1982">
				<stop  offset="0" style="stop-color:#FF928E"/>
				<stop  offset="1" style="stop-color:#FEB3B1"/>
			</linearGradient>
			<path style="fill:url(#SVGID_00000010301459465765613950000012034119194667547818_);" d="M1911.89,1442.378
				c0.159-0.102,14.424-34.471,14.584-34.573c13.079-79.631,44.99-147.83,54.4-165.775c1.583-3.018,4.588-5.01,7.984-5.3
				l26.629-2.273l44.181,59.741l-56.986-19.111c12.227,33.768-42.425,99.002-60.934,122.508c-1.878,2.386-1.356,5.855,1.142,7.581
				l10.882,7.517c-11.612,17.923-26.584,30.985-44.8,39.36L1911.89,1442.378z"/>
			
				<linearGradient id="SVGID_00000042015236021707407320000009770760000534222003_" gradientUnits="userSpaceOnUse" x1="-2196.4756" y1="-3233.4202" x2="-2207.9819" y2="-3056.9905" gradientTransform="matrix(0.7895 -0.6137 0.6137 0.7895 5616.3149 2595.0203)">
				<stop  offset="0" style="stop-color:#4042E2"/>
				<stop  offset="1" style="stop-color:#4F52FF"/>
			</linearGradient>
			<path style="fill:url(#SVGID_00000042015236021707407320000009770760000534222003_);" d="M1947.552,1408.707
				c0,0,6.091,0.664,9.075,5.351c1.428,2.242,1,5.204-0.802,7.157c-8.01,8.679-34.529,36.835-47.961,44.052
				c-1.101,0.592-2.436-0.239-2.42-1.489c0.047-3.476,1.051-10.607,6.697-21.908l-0.4,1.531c-0.505,1.937,1.787,3.372,3.295,2.055
				C1923.491,1438.074,1940.544,1422.218,1947.552,1408.707z"/>
			<g>
				
					<linearGradient id="SVGID_00000110459579649393918280000008050261806112988340_" gradientUnits="userSpaceOnUse" x1="2071.0696" y1="1249.8092" x2="2124.6174" y2="1347.8121">
					<stop  offset="0" style="stop-color:#4042E2"/>
					<stop  offset="1" style="stop-color:#4F52FF"/>
				</linearGradient>
				<path style="fill:url(#SVGID_00000110459579649393918280000008050261806112988340_);" d="M2140.133,1221.875
					c0,0,24.089,35.829,26.066,52.173c1.976,16.344-6.661,21.996-31.875,24.08c-75.03,6.203-112.017-16.284-112.017-16.284
					c-5.133-32.725-8.785-41.051-51.651-58.844c0,0,54.218,4.305,65.13,0.07C2046.697,1218.835,2140.133,1221.875,2140.133,1221.875
					z"/>
			</g>
			<g>
				
					<linearGradient id="SVGID_00000142158839197225043880000007462500769494614667_" gradientUnits="userSpaceOnUse" x1="2010.975" y1="1015.863" x2="2232.2285" y2="1067.3877">
					<stop  offset="0" style="stop-color:#E1473D"/>
					<stop  offset="1" style="stop-color:#E9605A"/>
				</linearGradient>
				<path style="fill:url(#SVGID_00000142158839197225043880000007462500769494614667_);" d="M2035.708,1063.403
					c-13.668-0.113-27.893,3.473-33.719-4.678c-8.569-11.988,4.472-44.546,26.331-53.022c22.819-8.848,38.688,14.967,63.076,6.235
					c19.051-6.821,17.581-24.296,35.339-37.482c29.46-21.876,88.24-14.427,110.22,14.717
					c35.931,47.644-25.746,154.248-72.486,155.534C2123.008,1145.847,2099.909,1063.934,2035.708,1063.403z"/>
				
					<linearGradient id="SVGID_00000153682538408377483210000005351583398624231850_" gradientUnits="userSpaceOnUse" x1="11132.6436" y1="1098.6403" x2="10779.2783" y2="1439.4978" gradientTransform="matrix(-1 0 0 1 13155.9824 0)">
					<stop  offset="0" style="stop-color:#FE7062"/>
					<stop  offset="1" style="stop-color:#FF928E"/>
				</linearGradient>
				<path style="fill:url(#SVGID_00000153682538408377483210000005351583398624231850_);" d="M2074.985,1217.132
					c0,0-28.052-26.711-41.86-44.403c-7.464-9.563-9.808-22.154-6.357-33.783c6.304-21.239,17.508-43.238,18.53-46.661
					c1.566-5.248,33.02-5.029,33.02-5.029s61.895,40.17,86.213,108.215l-27.312,8.502c0,0-16.16-27.113-32.128-44.35
					c0,0,27.63,36.5,28.603,51.442L2074.985,1217.132z"/>
				
					<linearGradient id="SVGID_00000069393921039981743430000009849540210914167721_" gradientUnits="userSpaceOnUse" x1="2151.0029" y1="1068.3157" x2="2125.0029" y2="1141.3158">
					<stop  offset="0" style="stop-color:#FF928E"/>
					<stop  offset="1" style="stop-color:#FEB3B1"/>
				</linearGradient>
				<path style="fill:url(#SVGID_00000069393921039981743430000009849540210914167721_);" d="M2021.538,1227.672l21.078-22.933
					l24.343,6.555c0,0,28.38,4.397,44.623,0c16.243-4.397,16.243-4.397,16.243-4.397l36.706-11.427l5.765,16.292
					c1.464,4.136-0.007,8.729-3.584,11.27c-3.176,2.256-6.898,4.736-9.27,5.774c-4.834,2.115-111.353,0.669-111.353,0.669
					L2021.538,1227.672z"/>
				
					<linearGradient id="SVGID_00000064356225269258464630000014580950577645308092_" gradientUnits="userSpaceOnUse" x1="2044.1759" y1="1041.658" x2="2084.176" y2="1142.6583">
					<stop  offset="0" style="stop-color:#FF928E"/>
					<stop  offset="1" style="stop-color:#FEB3B1"/>
				</linearGradient>
				<path style="fill:url(#SVGID_00000064356225269258464630000014580950577645308092_);" d="M2056.701,1049.436l21.14,39.311
					c-1.396,8.581-23.009,8.823-26.347,3.699c-0.34-0.521-0.534-1.124-0.663-1.734l-12.646-26.266
					c-0.543-2.562,6.479-11.192,8.789-12.422l8.402-4.473C2058.613,1045.83,2045.112,1045.694,2056.701,1049.436z"/>
				<g>
					
						<linearGradient id="SVGID_00000017493972919275886700000017241237996568908675_" gradientUnits="userSpaceOnUse" x1="-7049.4082" y1="3569.2356" x2="-7056.9082" y2="3499.2358" gradientTransform="matrix(0.5458 -0.8379 0.8379 0.5458 5824.7471 -5306.4175)">
						<stop  offset="0" style="stop-color:#FF928E"/>
						<stop  offset="1" style="stop-color:#FEB3B1"/>
					</linearGradient>
					<path style="fill:url(#SVGID_00000017493972919275886700000017241237996568908675_);" d="M2013.917,1040.21
						c0,0-2.386,13.281,8.052,30.168c10.439,16.886,20.834,16.124,26.115,10.102c5.281-6.022,11.607-16.052,8.728-32.894
						C2053.935,1030.743,2017.523,1023.274,2013.917,1040.21z"/>
					
						<linearGradient id="SVGID_00000083776364585362783260000003373884974034831253_" gradientUnits="userSpaceOnUse" x1="2007.3167" y1="1031.5724" x2="2228.5701" y2="1083.0972">
						<stop  offset="0" style="stop-color:#E1473D"/>
						<stop  offset="1" style="stop-color:#E9605A"/>
					</linearGradient>
					<path style="fill:url(#SVGID_00000083776364585362783260000003373884974034831253_);" d="M2044.176,1049.416
						c0,0-16.903-22.202-29.88-2.847l0.219,6.686c0,0-9.698,5.343-7.867-10.211c1.83-15.554,8.429-32.311,27.529-26.997
						c19.099,5.314,30.26,11.366,32.417,24.627c2.157,13.26-8.671,11.094-8.671,11.094s-4.136-9.15-9.13-9.775
						c-4.995-0.625-3.19,6.613-3.19,6.613L2044.176,1049.416z"/>
					
						<linearGradient id="SVGID_00000182516378253780364380000004649903842309581985_" gradientUnits="userSpaceOnUse" x1="-7030.2378" y1="3567.1946" x2="-7037.7378" y2="3497.1943" gradientTransform="matrix(0.5458 -0.8379 0.8379 0.5458 5824.7471 -5306.4175)">
						<stop  offset="0" style="stop-color:#FF928E"/>
						<stop  offset="1" style="stop-color:#FEB3B1"/>
					</linearGradient>
					<path style="fill:url(#SVGID_00000182516378253780364380000004649903842309581985_);" d="M2048.055,1048.823
						c0,0-8.756-11.362-0.786-13.72c7.97-2.359,7.673,11.133,7.153,16.152L2048.055,1048.823z"/>
				</g>
			</g>
			<g>
				<path style="fill:#7D97F4;" d="M2091.309,1236.749c-0.074,0.004-0.148,0.005-0.223,0.005l-96.951-0.106
					c-2.397-0.002-4.337-1.947-4.335-4.343c0.002-2.397,1.954-4.378,4.345-4.335l96.951,0.105c2.397,0.002,4.337,1.947,4.335,4.343
					C2095.428,1234.741,2093.602,1236.636,2091.309,1236.749z"/>
				<path style="fill:#91B3FA;" d="M1906.981,1148.724h80.742c5.956,0,11.377,3.437,13.918,8.824l37.327,79.149h-100.34
					c-3.839,0-7.287-2.345-8.698-5.915l-28.945-73.241C1899.312,1153.309,1902.431,1148.724,1906.981,1148.724z"/>
				<path style="fill:#7D97F4;" d="M1963.864,1189.305c1.75,5.436,0.457,10.716-2.887,11.792c-3.345,1.077-7.474-2.458-9.223-7.894
					c-1.75-5.436-0.457-10.715,2.887-11.792C1957.985,1180.335,1962.114,1183.869,1963.864,1189.305z"/>
			</g>
			<path style="opacity:0.39;fill:#FFFFFF;" d="M2118.153,1051.535c-0.257,0-0.515-0.003-0.772-0.011
				c-10.082-0.302-20.43-5.197-31.633-14.962c-17.447-15.21-24.091-17.706-37.874-17.706c-0.401,0-0.807,0.002-1.222,0.007
				l-0.004-0.561c0.39-0.003,0.775-0.005,1.154-0.005c13.793,0,20.841,2.609,38.314,17.843
				c11.101,9.677,21.334,14.526,31.282,14.824c10.73,0.317,21.914-6.271,30.64-18.094c3.805-5.156,6.989-10.86,10.068-16.378
				c2.886-5.17,5.87-10.517,9.367-15.419c2.547-3.571,6.58-8.633,12.173-11.352c5.566-2.711,11.906-2.45,16.148,0.657l-0.331,0.454
				c-4.077-2.988-10.188-3.225-15.572-0.607c-5.477,2.664-9.45,7.653-11.962,11.175c-3.479,4.875-6.455,10.21-9.333,15.367
				c-3.088,5.532-6.28,11.253-10.106,16.437C2139.862,1044.893,2128.847,1051.535,2118.153,1051.535z"/>
			<path style="opacity:0.39;fill:#FFFFFF;" d="M2121.385,1065.67c-1.056,0-2.1-0.059-3.126-0.179
				c-6.56-0.761-14.205-4.768-16.501-12.004l0.535-0.169c2.22,6.996,9.651,10.876,16.031,11.616
				c8.251,0.957,17.555-2.039,26.211-8.434c5.706-4.214,10.722-9.436,15.574-14.486c1.607-1.672,3.269-3.402,4.932-5.071
				c7.319-7.341,15.296-14.127,23.709-20.17c5.572-4.003,11.633-7.683,18.284-7.683c0.222,0,0.444,0.005,0.668,0.012
				c3.987,0.149,8.15,2.325,10.606,5.542c1.894,2.482,2.59,5.333,1.959,8.034l-0.546-0.128c0.592-2.533-0.069-5.221-1.859-7.566
				c-2.358-3.09-6.355-5.178-10.182-5.321c-6.763-0.247-12.927,3.488-18.604,7.565c-8.388,6.025-16.342,12.792-23.639,20.111
				c-1.659,1.665-3.318,3.393-4.924,5.063c-4.867,5.067-9.9,10.306-15.645,14.549
				C2137.171,1062.639,2128.951,1065.67,2121.385,1065.67z"/>
			<path style="opacity:0.39;fill:#FFFFFF;" d="M2128.01,1074.135c-2.565,0-5.163-0.505-7.652-1.763l0.252-0.502
				c8.928,4.511,19.624-1.264,23.806-3.958c4.69-3.02,9.094-6.699,13.352-10.256c7.039-5.881,14.317-11.963,23.04-15.162
				c4.464-1.639,8.561-2.174,12.174-1.593c4.457,0.718,8.219,3.219,10.065,6.694l-0.495,0.262c-1.765-3.32-5.375-5.713-9.659-6.402
				c-3.51-0.564-7.517-0.039-11.891,1.565c-8.631,3.166-15.871,9.215-22.872,15.066c-4.272,3.569-8.689,7.259-13.408,10.297
				C2140.911,1070.835,2134.566,1074.135,2128.01,1074.135z"/>
		</g>
		<g>
			<path style="fill:#7D97F4;" d="M2148.544,1292.746H2071.1c-9.608,0-18.486,5.126-23.29,13.447l-38.722,67.068
				c-4.804,8.321-4.804,18.572,0,26.893l38.722,67.068c4.804,8.321,13.682,13.447,23.29,13.447h77.444
				c9.608,0,18.486-5.126,23.29-13.447l38.722-67.068c4.804-8.321,4.804-18.573,0-26.893l-38.722-67.068
				C2167.03,1297.872,2158.152,1292.746,2148.544,1292.746z"/>
			<path style="fill:#91B3FA;" d="M2071.1,1467.798c-4.993,0-9.646-2.686-12.143-7.01l-38.722-67.069
				c-2.496-4.324-2.496-9.697,0-14.022l38.722-67.068c2.497-4.325,7.15-7.011,12.143-7.011h77.444c4.993,0,9.646,2.686,12.143,7.01
				l38.722,67.069c2.497,4.324,2.497,9.697,0,14.022l-38.722,67.068c-2.497,4.325-7.15,7.011-12.143,7.011H2071.1z"/>
		</g>
		<g>
			<path style="fill:#7D97F4;" d="M2328.385,1181.608h-77.444c-9.608,0-18.486,5.126-23.29,13.447l-38.722,67.068
				c-4.804,8.321-4.804,18.573,0,26.893l38.722,67.068c4.804,8.321,13.682,13.447,23.29,13.447h77.444
				c9.608,0,18.486-5.126,23.29-13.447l38.722-67.068c4.804-8.321,4.804-18.573,0-26.893l-38.722-67.068
				C2346.871,1186.734,2337.993,1181.608,2328.385,1181.608z"/>
			<path style="fill:#91B3FA;" d="M2250.941,1356.66c-4.993,0-9.646-2.686-12.143-7.01l-38.722-67.069
				c-2.497-4.324-2.497-9.697,0-14.022l38.722-67.068c2.497-4.325,7.15-7.011,12.143-7.011h77.444c4.994,0,9.647,2.686,12.143,7.01
				l38.722,67.069c2.496,4.324,2.496,9.697,0,14.022l-38.722,67.068c-2.497,4.325-7.15,7.011-12.143,7.011H2250.941z"/>
		</g>
	</g>
</g>
</svg>
