<?xml version="1.0" encoding="UTF-8"?>
<!DOCTYPE svg PUBLIC "-//W3C//DTD SVG 1.1//EN" "http://www.w3.org/Graphics/SVG/1.1/DTD/svg11.dtd">
<svg xmlns="http://www.w3.org/2000/svg" version="1.1" width="456px" height="308px" style="shape-rendering:geometricPrecision; text-rendering:geometricPrecision; image-rendering:optimizeQuality; fill-rule:evenodd; clip-rule:evenodd" xmlns:xlink="http://www.w3.org/1999/xlink">
<g><path style="opacity:1" fill="#fefefe" d="M -0.5,-0.5 C 151.5,-0.5 303.5,-0.5 455.5,-0.5C 455.5,102.167 455.5,204.833 455.5,307.5C 303.5,307.5 151.5,307.5 -0.5,307.5C -0.5,204.833 -0.5,102.167 -0.5,-0.5 Z"/></g>
<g><path style="opacity:1" fill="#8eb7a8" d="M 214.5,39.5 C 182.167,40.1667 149.833,40.8333 117.5,41.5C 113.167,42.5 110.5,45.1667 109.5,49.5C 108.662,49.8417 108.328,50.5084 108.5,51.5C 107.833,84.8333 107.167,118.167 106.5,151.5C 86.8635,127.027 80.0302,99.3606 86,68.5C 97.3675,35.9611 120.201,18.2944 154.5,15.5C 177.705,15.7782 197.705,23.7782 214.5,39.5 Z"/></g>
<g><path style="opacity:1" fill="#fa6a79" d="M 347.5,35.5 C 342.456,37.2094 337.122,38.0428 331.5,38C 329.277,38.5662 327.277,39.3995 325.5,40.5C 324.167,40.5 322.833,40.5 321.5,40.5C 316.833,40.5 312.167,40.5 307.5,40.5C 307.737,39.209 307.404,38.209 306.5,37.5C 306.5,36.5 306.5,35.5 306.5,34.5C 320.344,34.171 334.01,34.5043 347.5,35.5 Z"/></g>
<g><path style="opacity:1" fill="#f95060" d="M 347.5,35.5 C 347.833,35.5 348.167,35.5 348.5,35.5C 348.5,37.1667 348.5,38.8333 348.5,40.5C 340.833,40.5 333.167,40.5 325.5,40.5C 327.277,39.3995 329.277,38.5662 331.5,38C 337.122,38.0428 342.456,37.2094 347.5,35.5 Z"/></g>
<g><path style="opacity:1" fill="#e7f4f7" d="M 214.5,39.5 C 245.093,40.4919 275.76,40.8252 306.5,40.5C 306.5,40.8333 306.5,41.1667 306.5,41.5C 243.5,41.5 180.5,41.5 117.5,41.5C 149.833,40.8333 182.167,40.1667 214.5,39.5 Z"/></g>
<g><path style="opacity:1" fill="#f09286" d="M 306.5,37.5 C 307.404,38.209 307.737,39.209 307.5,40.5C 312.167,40.5 316.833,40.5 321.5,40.5C 321.5,40.8333 321.5,41.1667 321.5,41.5C 321.167,41.5 320.833,41.5 320.5,41.5C 316.167,41.5 311.833,41.5 307.5,41.5C 307.167,41.5 306.833,41.5 306.5,41.5C 306.5,41.1667 306.5,40.8333 306.5,40.5C 306.5,39.5 306.5,38.5 306.5,37.5 Z"/></g>
<g><path style="opacity:1" fill="#ed7b65" d="M 348.5,35.5 C 349.461,37.2646 349.795,39.2646 349.5,41.5C 340.167,41.5 330.833,41.5 321.5,41.5C 321.5,41.1667 321.5,40.8333 321.5,40.5C 322.833,40.5 324.167,40.5 325.5,40.5C 333.167,40.5 340.833,40.5 348.5,40.5C 348.5,38.8333 348.5,37.1667 348.5,35.5 Z"/></g>
<g><path style="opacity:1" fill="#fceba3" d="M 307.5,41.5 C 311.833,41.5 316.167,41.5 320.5,41.5C 319.766,42.7079 319.433,44.0413 319.5,45.5C 321.167,45.5 322.833,45.5 324.5,45.5C 324.795,47.7354 324.461,49.7354 323.5,51.5C 323.5,50.5 323.5,49.5 323.5,48.5C 321.8,48.3739 320.3,47.7073 319,46.5C 317.97,46.8361 317.47,47.5028 317.5,48.5C 316.503,48.4701 315.836,48.9701 315.5,50C 314.678,52.4339 314.344,54.9339 314.5,57.5C 312.833,57.5 311.167,57.5 309.5,57.5C 308.549,56.0813 308.216,54.4147 308.5,52.5C 307.756,48.8815 307.423,45.2148 307.5,41.5 Z"/></g>
<g><path style="opacity:1" fill="#fce272" d="M 320.5,41.5 C 320.833,41.5 321.167,41.5 321.5,41.5C 330.833,41.5 340.167,41.5 349.5,41.5C 349.5,41.8333 349.5,42.1667 349.5,42.5C 349.232,45.1194 349.565,47.6194 350.5,50C 354.821,50.499 359.154,50.6657 363.5,50.5C 364.117,50.6107 364.617,50.944 365,51.5C 365.538,56.1709 366.038,60.8376 366.5,65.5C 361.305,65.8205 356.305,65.4872 351.5,64.5C 351.5,64.1667 351.5,63.8333 351.5,63.5C 352.461,61.7354 352.795,59.7354 352.5,57.5C 339.833,57.5 327.167,57.5 314.5,57.5C 314.344,54.9339 314.678,52.4339 315.5,50C 315.836,48.9701 316.503,48.4701 317.5,48.5C 318.364,49.6883 319.364,50.8549 320.5,52C 321.749,52.7401 322.749,52.5735 323.5,51.5C 324.461,49.7354 324.795,47.7354 324.5,45.5C 322.833,45.5 321.167,45.5 319.5,45.5C 319.433,44.0413 319.766,42.7079 320.5,41.5 Z"/></g>
<g><path style="opacity:1" fill="#f15262" d="M 350.5,42.5 C 354.182,42.3347 357.848,42.5014 361.5,43C 363.229,44.7889 363.896,46.9556 363.5,49.5C 359.5,49.5 355.5,49.5 351.5,49.5C 351.007,47.1944 350.674,44.861 350.5,42.5 Z"/></g>
<g><path style="opacity:1" fill="#ec9964" d="M 349.5,42.5 C 349.833,42.5 350.167,42.5 350.5,42.5C 350.674,44.861 351.007,47.1944 351.5,49.5C 355.5,49.5 359.5,49.5 363.5,49.5C 363.5,49.8333 363.5,50.1667 363.5,50.5C 359.154,50.6657 354.821,50.499 350.5,50C 349.565,47.6194 349.232,45.1194 349.5,42.5 Z"/></g>
<g><path style="opacity:1" fill="#ed8267" d="M 323.5,51.5 C 322.749,52.5735 321.749,52.7401 320.5,52C 319.364,50.8549 318.364,49.6883 317.5,48.5C 317.47,47.5028 317.97,46.8361 319,46.5C 320.3,47.7073 321.8,48.3739 323.5,48.5C 323.5,49.5 323.5,50.5 323.5,51.5 Z"/></g>
<g><path style="opacity:1" fill="#d7d7d8" d="M 308.5,52.5 C 308.216,54.4147 308.549,56.0813 309.5,57.5C 309.232,59.099 309.566,60.4324 310.5,61.5C 310.5,62.8333 310.5,64.1667 310.5,65.5C 321.167,65.5 331.833,65.5 342.5,65.5C 342.5,65.8333 342.5,66.1667 342.5,66.5C 340.5,66.5 338.5,66.5 336.5,66.5C 336.667,105.501 336.5,144.501 336,183.5C 333.623,191.877 328.123,196.71 319.5,198C 256.455,198.985 193.455,198.652 130.5,197C 125.191,194.233 121.358,190.067 119,184.5C 118.333,144.833 118.333,105.167 119,65.5C 121.963,58.6018 127.129,54.4351 134.5,53C 192.499,52.5 250.499,52.3333 308.5,52.5 Z"/></g>
<g><path style="opacity:1" fill="#f26a5a" d="M 309.5,57.5 C 311.167,57.5 312.833,57.5 314.5,57.5C 327.167,57.5 339.833,57.5 352.5,57.5C 352.795,59.7354 352.461,61.7354 351.5,63.5C 351.5,61.8333 351.5,60.1667 351.5,58.5C 337.833,58.5 324.167,58.5 310.5,58.5C 310.5,59.5 310.5,60.5 310.5,61.5C 309.566,60.4324 309.232,59.099 309.5,57.5 Z"/></g>
<g><path style="opacity:1" fill="#f94f5f" d="M 351.5,63.5 C 351.5,63.8333 351.5,64.1667 351.5,64.5C 350.833,64.5 350.5,64.8333 350.5,65.5C 347.833,65.5 345.167,65.5 342.5,65.5C 331.833,65.5 321.167,65.5 310.5,65.5C 310.5,64.1667 310.5,62.8333 310.5,61.5C 310.5,60.5 310.5,59.5 310.5,58.5C 324.167,58.5 337.833,58.5 351.5,58.5C 351.5,60.1667 351.5,61.8333 351.5,63.5 Z"/></g>
<g><path style="opacity:1" fill="#ef9566" d="M 351.5,64.5 C 356.305,65.4872 361.305,65.8205 366.5,65.5C 366.5,65.8333 366.5,66.1667 366.5,66.5C 361.167,66.5 355.833,66.5 350.5,66.5C 350.5,66.1667 350.5,65.8333 350.5,65.5C 350.5,64.8333 350.833,64.5 351.5,64.5 Z"/></g>
<g><path style="opacity:1" fill="#e7f2fa" d="M 109.5,49.5 C 109.333,97.5012 109.5,145.501 110,193.5C 111.907,195.456 113.074,197.79 113.5,200.5C 111.547,199.374 110.047,197.708 109,195.5C 108.5,181.504 108.333,167.504 108.5,153.5C 108.5,119.5 108.5,85.5 108.5,51.5C 108.328,50.5084 108.662,49.8417 109.5,49.5 Z"/></g>
<g><path style="opacity:1" fill="#9dc1b9" d="M 108.5,51.5 C 108.5,85.5 108.5,119.5 108.5,153.5C 107.5,153.167 106.833,152.5 106.5,151.5C 107.167,118.167 107.833,84.8333 108.5,51.5 Z"/></g>
<g><path style="opacity:1" fill="#ea475d" d="M 350.5,66.5 C 355.833,66.5 361.167,66.5 366.5,66.5C 366.802,69.0593 366.468,71.3926 365.5,73.5C 359.158,73.6662 352.825,73.4995 346.5,73C 347.928,70.8678 349.261,68.7011 350.5,66.5 Z"/></g>
<g><path style="opacity:1" fill="#4b414c" d="M 342.5,66.5 C 344.527,66.3379 346.527,66.5045 348.5,67C 347.766,69.5607 346.433,71.7274 344.5,73.5C 342.837,71.5615 342.171,69.2282 342.5,66.5 Z"/></g>
<g><path style="opacity:1" fill="#bc5874" d="M 342.5,66.5 C 342.5,66.1667 342.5,65.8333 342.5,65.5C 345.167,65.5 347.833,65.5 350.5,65.5C 350.5,65.8333 350.5,66.1667 350.5,66.5C 349.261,68.7011 347.928,70.8678 346.5,73C 352.825,73.4995 359.158,73.6662 365.5,73.5C 365.158,74.3382 364.492,74.6716 363.5,74.5C 356.978,74.8235 350.645,74.4902 344.5,73.5C 346.433,71.7274 347.766,69.5607 348.5,67C 346.527,66.5045 344.527,66.3379 342.5,66.5 Z"/></g>
<g><path style="opacity:1" fill="#ecf6fc" d="M 345.5,75.5 C 345.173,112.573 345.507,149.573 346.5,186.5C 345.816,189.592 344.816,192.592 343.5,195.5C 344.144,155.354 344.81,115.354 345.5,75.5 Z"/></g>
<g><path style="opacity:1" fill="#90b8a9" d="M 346.5,186.5 C 362.613,197.054 370.613,212.054 370.5,231.5C 361.764,224.94 353.43,217.773 345.5,210C 341.779,207.473 337.779,205.473 333.5,204C 338.249,202.746 341.582,199.912 343.5,195.5C 344.816,192.592 345.816,189.592 346.5,186.5 Z"/></g>
<g><path style="opacity:1" fill="#f6f4ed" d="M 117.5,41.5 C 180.5,41.5 243.5,41.5 306.5,41.5C 306.833,41.5 307.167,41.5 307.5,41.5C 307.423,45.2148 307.756,48.8815 308.5,52.5C 250.499,52.3333 192.499,52.5 134.5,53C 127.129,54.4351 121.963,58.6018 119,65.5C 118.333,105.167 118.333,144.833 119,184.5C 121.358,190.067 125.191,194.233 130.5,197C 193.455,198.652 256.455,198.985 319.5,198C 328.123,196.71 333.623,191.877 336,183.5C 336.5,144.501 336.667,105.501 336.5,66.5C 338.5,66.5 340.5,66.5 342.5,66.5C 342.171,69.2282 342.837,71.5615 344.5,73.5C 350.645,74.4902 356.978,74.8235 363.5,74.5C 357.69,75.4896 351.69,75.8229 345.5,75.5C 344.81,115.354 344.144,155.354 343.5,195.5C 341.582,199.912 338.249,202.746 333.5,204C 337.779,205.473 341.779,207.473 345.5,210C 353.43,217.773 361.764,224.94 370.5,231.5C 370.751,233.17 371.418,234.67 372.5,236C 374.792,237.29 376.792,238.957 378.5,241C 387.632,244.097 390.798,250.263 388,259.5C 384.746,263.361 380.579,265.528 375.5,266C 367.841,266.5 360.174,266.666 352.5,266.5C 291.336,265.501 230.002,265.168 168.5,265.5C 137.165,265.667 105.832,265.5 74.5,265C 65.613,261.138 63.4463,254.972 68,246.5C 82.1157,234.519 95.9491,222.185 109.5,209.5C 110.086,209.709 110.586,210.043 111,210.5C 112.642,206.534 115.642,204.534 120,204.5C 118.686,202.379 116.519,201.045 113.5,200.5C 113.074,197.79 111.907,195.456 110,193.5C 109.5,145.501 109.333,97.5012 109.5,49.5C 110.5,45.1667 113.167,42.5 117.5,41.5 Z"/></g>
<g><path style="opacity:1" fill="#ea5975" d="M 279.5,167.5 C 280.873,167.343 282.207,167.51 283.5,168C 284.833,169 284.833,170 283.5,171C 279.167,174 274.833,177 270.5,180C 264.44,181.066 263.106,179.066 266.5,174C 271.204,172.315 275.538,170.148 279.5,167.5 Z"/></g>
<g><path style="opacity:1" fill="#212c43" d="M 309.5,165.5 C 309.586,166.496 309.252,167.329 308.5,168C 301.599,171.918 294.599,172.418 287.5,169.5C 287.47,168.503 287.97,167.836 289,167.5C 293.458,168.579 297.958,168.746 302.5,168C 305.102,167.117 307.269,165.617 309,163.5C 309.464,164.094 309.631,164.761 309.5,165.5 Z"/></g>
<g><path style="opacity:1" fill="#c9f9fd" d="M 188.5,161.5 C 192.415,167.821 190.748,170.821 183.5,170.5C 183.975,173.082 183.308,175.082 181.5,176.5C 181.5,171.5 181.5,166.5 181.5,161.5C 183.833,161.5 186.167,161.5 188.5,161.5 Z"/></g>
<g><path style="opacity:1" fill="#69caf3" d="M 183.5,163.5 C 185.167,163.5 186.833,163.5 188.5,163.5C 189.575,167.938 187.908,169.938 183.5,169.5C 183.5,167.5 183.5,165.5 183.5,163.5 Z"/></g>
<g><path style="opacity:1" fill="#4b586e" d="M 309.5,165.5 C 309.631,164.761 309.464,164.094 309,163.5C 307.269,165.617 305.102,167.117 302.5,168C 297.958,168.746 293.458,168.579 289,167.5C 287.97,167.836 287.47,168.503 287.5,169.5C 287.067,166.741 285.4,165.408 282.5,165.5C 281.805,156.03 286.305,151.697 296,152.5C 301.51,152.558 306.177,154.558 310,158.5C 310.796,161.039 310.629,163.372 309.5,165.5 Z"/></g>
<g><path style="opacity:1" fill="#343d52" d="M 282.5,75.5 C 283.167,87.9955 283.5,100.662 283.5,113.5C 283.64,127.232 283.14,140.899 282,154.5C 268.833,162.333 255.667,170.167 242.5,178C 241.072,178.579 239.738,178.412 238.5,177.5C 238.169,151.328 238.502,125.328 239.5,99.5C 239.333,123.502 239.5,147.502 240,171.5C 240.168,151.329 240.668,131.329 241.5,111.5C 241.5,131.5 241.5,151.5 241.5,171.5C 242.873,171.657 244.207,171.49 245.5,171C 257.083,164.293 268.583,157.459 280,150.5C 280.5,130.169 280.667,109.836 280.5,89.5C 281.332,109.329 281.832,129.329 282,149.5C 282.5,124.836 282.667,100.169 282.5,75.5 Z"/></g>
<g><path style="opacity:1" fill="#adc6dd" d="M 306.5,160.5 C 305.261,165.956 301.761,167.956 296,166.5C 291.517,167.337 288.017,166.004 285.5,162.5C 285.863,161.817 286.196,161.15 286.5,160.5C 289.036,158.004 292.203,157.004 296,157.5C 299.993,157.062 303.493,158.062 306.5,160.5 Z"/></g>
<g><path style="opacity:1" fill="#21304a" d="M 306.5,160.5 C 303.493,158.062 299.993,157.062 296,157.5C 292.203,157.004 289.036,158.004 286.5,160.5C 285.209,159.458 285.209,158.292 286.5,157C 293.194,153.723 299.861,153.723 306.5,157C 307.791,158.292 307.791,159.458 306.5,160.5 Z"/></g>
<g><path style="opacity:1" fill="#49c4fa" d="M 205.5,146.5 C 205.667,157.838 205.5,169.172 205,180.5C 204.391,183.61 202.557,185.61 199.5,186.5C 183.844,187.666 168.177,187.833 152.5,187C 150.959,185.629 149.625,184.129 148.5,182.5C 148.62,181.414 149.287,180.747 150.5,180.5C 156.493,178.783 162.493,178.117 168.5,178.5C 169.739,178.058 170.739,177.391 171.5,176.5C 172.404,175.791 172.737,174.791 172.5,173.5C 174.199,173.38 175.865,173.046 177.5,172.5C 179.833,172.833 180.167,173.833 178.5,175.5C 179.325,176.386 180.325,176.719 181.5,176.5C 183.308,175.082 183.975,173.082 183.5,170.5C 190.748,170.821 192.415,167.821 188.5,161.5C 190.012,158.312 191.678,155.146 193.5,152C 193.257,151.098 192.923,150.265 192.5,149.5C 195.518,149.665 198.518,149.498 201.5,149C 202.736,147.915 204.069,147.082 205.5,146.5 Z"/></g>
<g><path style="opacity:1" fill="#9c618d" d="M 186.5,146.5 C 188.027,146.427 189.027,147.094 189.5,148.5C 187.973,148.573 186.973,147.906 186.5,146.5 Z"/></g>
<g><path style="opacity:1" fill="#c7325c" d="M 206.5,123.5 C 211.123,127.432 212.623,132.432 211,138.5C 209.694,141.621 207.86,144.287 205.5,146.5C 204.069,147.082 202.736,147.915 201.5,149C 198.518,149.498 195.518,149.665 192.5,149.5C 191.209,149.737 190.209,149.404 189.5,148.5C 189.027,147.094 188.027,146.427 186.5,146.5C 185.5,146.167 184.833,145.5 184.5,144.5C 200.809,147.195 208.142,140.195 206.5,123.5 Z"/></g>
<g><path style="opacity:1" fill="#c1c6e8" d="M 290.5,140.5 C 294.71,140.183 298.544,141.183 302,143.5C 303.567,142.144 305.4,141.477 307.5,141.5C 306.384,143.508 304.551,144.508 302,144.5C 298.201,142.846 294.368,141.512 290.5,140.5 Z"/></g>
<g><path style="opacity:1" fill="#7c92f0" d="M 313.5,137.5 C 313.241,141.068 311.241,142.401 307.5,141.5C 305.4,141.477 303.567,142.144 302,143.5C 298.544,141.183 294.71,140.183 290.5,140.5C 291.514,139.235 293.014,138.569 295,138.5C 297.197,138.651 299.364,138.985 301.5,139.5C 305.4,138.191 309.4,137.524 313.5,137.5 Z"/></g>
<g><path style="opacity:1" fill="#98d7e7" d="M 149.5,130.5 C 149.539,131.756 149.039,132.756 148,133.5C 147.5,149.83 147.333,166.163 147.5,182.5C 146.338,166.005 146.172,149.338 147,132.5C 147.708,131.619 148.542,130.953 149.5,130.5 Z"/></g>
<g><path style="opacity:1" fill="#8ba6f7" d="M 311.5,125.5 C 313.213,126.635 313.88,128.302 313.5,130.5C 314.5,130.5 315.5,130.5 316.5,130.5C 316.727,133.438 315.727,135.771 313.5,137.5C 309.4,137.524 305.4,138.191 301.5,139.5C 299.364,138.985 297.197,138.651 295,138.5C 293.014,138.569 291.514,139.235 290.5,140.5C 289.767,138.706 288.767,137.039 287.5,135.5C 287.5,133.833 287.5,132.167 287.5,130.5C 288.5,130.5 289.5,130.5 290.5,130.5C 290.5,128.833 290.5,127.167 290.5,125.5C 293.385,125.806 296.052,125.473 298.5,124.5C 299.695,124.322 300.862,123.989 302,123.5C 304.935,125.192 308.102,125.858 311.5,125.5 Z"/></g>
<g><path style="opacity:1" fill="#ced2e4" d="M 307.5,131.5 C 306.981,134.775 304.981,136.108 301.5,135.5C 298.607,135.931 296.607,134.931 295.5,132.5C 299.286,130.243 303.286,129.91 307.5,131.5 Z"/></g>
<g><path style="opacity:1" fill="#5edaf6" d="M 181.5,127.5 C 179.524,133.748 180.524,139.415 184.5,144.5C 184.833,145.5 185.5,146.167 186.5,146.5C 186.973,147.906 187.973,148.573 189.5,148.5C 190.209,149.404 191.209,149.737 192.5,149.5C 192.923,150.265 193.257,151.098 193.5,152C 191.678,155.146 190.012,158.312 188.5,161.5C 186.167,161.5 183.833,161.5 181.5,161.5C 181.5,166.5 181.5,171.5 181.5,176.5C 180.325,176.719 179.325,176.386 178.5,175.5C 180.167,173.833 179.833,172.833 177.5,172.5C 175.865,173.046 174.199,173.38 172.5,173.5C 172.737,174.791 172.404,175.791 171.5,176.5C 170.739,177.391 169.739,178.058 168.5,178.5C 162.493,178.117 156.493,178.783 150.5,180.5C 149.287,180.747 148.62,181.414 148.5,182.5C 148.167,182.5 147.833,182.5 147.5,182.5C 147.333,166.163 147.5,149.83 148,133.5C 149.039,132.756 149.539,131.756 149.5,130.5C 149.833,129.833 150.167,129.167 150.5,128.5C 160.782,127.548 171.115,127.214 181.5,127.5 Z"/></g>
<g><path style="opacity:1" fill="#c6f6fc" d="M 171.5,176.5 C 169.558,171.944 168.892,166.944 169.5,161.5C 173.007,160.994 176.174,161.66 179,163.5C 179.826,169.176 177.326,171.843 171.5,171.5C 171.5,173.167 171.5,174.833 171.5,176.5 Z"/></g>
<g><path style="opacity:1" fill="#69dbf2" d="M 171.5,163.5 C 173.167,163.5 174.833,163.5 176.5,163.5C 176.5,165.167 176.5,166.833 176.5,168.5C 174.833,168.5 173.167,168.5 171.5,168.5C 171.5,166.833 171.5,165.167 171.5,163.5 Z"/></g>
<g><path style="opacity:1" fill="#b9f0f8" d="M 160.5,161.5 C 161.822,161.33 162.989,161.663 164,162.5C 165.176,167.203 166.342,171.87 167.5,176.5C 165.723,176.214 164.056,175.547 162.5,174.5C 160.945,174.722 159.611,175.389 158.5,176.5C 158.167,175.667 157.833,174.833 157.5,174C 158.693,169.864 159.693,165.697 160.5,161.5 Z"/></g>
<g><path style="opacity:1" fill="#798ef3" d="M 307.5,131.5 C 303.286,129.91 299.286,130.243 295.5,132.5C 294.957,132.44 294.624,132.107 294.5,131.5C 297.975,127.116 302.308,126.282 307.5,129C 308.774,129.977 308.774,130.811 307.5,131.5 Z"/></g>
<g><path style="opacity:1" fill="#b8dae3" d="M 181.5,127.5 C 171.115,127.214 160.782,127.548 150.5,128.5C 150.611,127.883 150.944,127.383 151.5,127C 161.675,126.175 171.675,126.342 181.5,127.5 Z"/></g>
<g><path style="opacity:1" fill="#c3cce4" d="M 298.5,124.5 C 296.052,125.473 293.385,125.806 290.5,125.5C 290.5,127.167 290.5,128.833 290.5,130.5C 289.5,130.5 288.5,130.5 287.5,130.5C 287.5,132.167 287.5,133.833 287.5,135.5C 286.853,134.726 286.52,133.726 286.5,132.5C 287.655,129.989 288.322,127.322 288.5,124.5C 291.833,124.5 295.167,124.5 298.5,124.5 Z"/></g>
<g><path style="opacity:1" fill="#ef607e" d="M 194.5,119.5 C 193.365,121.213 191.698,121.88 189.5,121.5C 189.33,122.822 189.663,123.989 190.5,125C 192.641,124.914 194.974,125.081 197.5,125.5C 197.821,131.026 197.488,136.36 196.5,141.5C 196.827,136.786 196.493,132.12 195.5,127.5C 194.817,127.863 194.15,128.196 193.5,128.5C 192.903,128.735 192.57,129.235 192.5,130C 194.256,133.616 194.923,137.449 194.5,141.5C 193.604,136.9 192.437,132.234 191,127.5C 190.259,126.359 189.425,126.359 188.5,127.5C 187.943,125.668 186.943,124.335 185.5,123.5C 187.712,120.642 190.712,119.309 194.5,119.5 Z"/></g>
<g><path style="opacity:1" fill="#f7486f" d="M 194.5,119.5 C 199.207,119.069 203.207,120.402 206.5,123.5C 208.142,140.195 200.809,147.195 184.5,144.5C 180.524,139.415 179.524,133.748 181.5,127.5C 182.473,125.861 183.806,124.527 185.5,123.5C 186.943,124.335 187.943,125.668 188.5,127.5C 189.425,126.359 190.259,126.359 191,127.5C 192.437,132.234 193.604,136.9 194.5,141.5C 195.167,142.833 195.833,142.833 196.5,141.5C 197.488,136.36 197.821,131.026 197.5,125.5C 194.974,125.081 192.641,124.914 190.5,125C 189.663,123.989 189.33,122.822 189.5,121.5C 191.698,121.88 193.365,121.213 194.5,119.5 Z"/></g>
<g><path style="opacity:1" fill="#efb5c8" d="M 193.5,128.5 C 194.916,132.804 195.916,137.137 196.5,141.5C 195.833,142.833 195.167,142.833 194.5,141.5C 194.923,137.449 194.256,133.616 192.5,130C 192.57,129.235 192.903,128.735 193.5,128.5 Z"/></g>
<g><path style="opacity:1" fill="#f8f4fa" d="M 196.5,141.5 C 195.916,137.137 194.916,132.804 193.5,128.5C 194.15,128.196 194.817,127.863 195.5,127.5C 196.493,132.12 196.827,136.786 196.5,141.5 Z"/></g>
<g><path style="opacity:1" fill="#4c5b73" d="M 281.5,74.5 C 268.771,81.0343 256.104,87.8676 243.5,95C 241.959,96.3712 240.625,97.8712 239.5,99.5C 238.502,125.328 238.169,151.328 238.5,177.5C 235.943,175.968 233.443,174.301 231,172.5C 230.333,146.5 230.333,120.5 231,94.5C 232.873,92.2911 235.04,90.4578 237.5,89C 248.663,82.9194 259.663,76.586 270.5,70C 274.845,69.8457 278.512,71.3457 281.5,74.5 Z"/></g>
<g><path style="opacity:1" fill="#c9cfe3" d="M 311.5,125.5 C 308.102,125.858 304.935,125.192 302,123.5C 300.862,123.989 299.695,124.322 298.5,124.5C 298.5,123.167 298.5,121.833 298.5,120.5C 301.271,120.421 303.937,120.921 306.5,122C 306.043,122.414 305.709,122.914 305.5,123.5C 307.631,124.169 309.631,124.835 311.5,125.5 Z"/></g>
<g><path style="opacity:1" fill="#dde1f0" d="M 232.5,114.5 C 235.352,114.352 237.019,115.686 237.5,118.5C 236.109,121.792 234.276,122.125 232,119.5C 231.36,117.735 231.527,116.068 232.5,114.5 Z"/></g>
<g><path style="opacity:1" fill="#f7f6f7" d="M 280.5,89.5 C 280.667,109.836 280.5,130.169 280,150.5C 268.583,157.459 257.083,164.293 245.5,171C 244.207,171.49 242.873,171.657 241.5,171.5C 241.5,151.5 241.5,131.5 241.5,111.5C 241.5,111.167 241.5,110.833 241.5,110.5C 253.795,104.353 265.795,97.6861 277.5,90.5C 278.391,89.8902 279.391,89.5569 280.5,89.5 Z"/></g>
<g><path style="opacity:1" fill="#78e45b" d="M 253.5,162.5 C 251.632,163.263 249.965,164.263 248.5,165.5C 247.5,165.5 246.5,165.5 245.5,165.5C 244.441,159.552 246.774,155.552 252.5,153.5C 253.484,156.428 253.817,159.428 253.5,162.5 Z"/></g>
<g><path style="opacity:1" fill="#7ace6f" d="M 253.5,162.5 C 253.817,159.428 253.484,156.428 252.5,153.5C 246.774,155.552 244.441,159.552 245.5,165.5C 246.5,165.5 247.5,165.5 248.5,165.5C 247.116,166.801 245.616,166.801 244,165.5C 242.038,158.816 244.205,154.316 250.5,152C 251.793,151.51 253.127,151.343 254.5,151.5C 254.815,155.371 254.482,159.038 253.5,162.5 Z"/></g>
<g><path style="opacity:1" fill="#5685e8" d="M 265.5,144.5 C 263.572,146.247 261.406,147.913 259,149.5C 258.819,152.695 258.319,155.695 257.5,158.5C 256.359,155.36 256.192,152.027 257,148.5C 259.7,146.731 262.534,145.398 265.5,144.5 Z"/></g>
<g><path style="opacity:1" fill="#61b2f6" d="M 265.5,144.5 C 266.117,144.611 266.617,144.944 267,145.5C 267.667,148.5 267.667,151.5 267,154.5C 264.172,155.914 261.506,157.58 259,159.5C 258.235,159.43 257.735,159.097 257.5,158.5C 258.319,155.695 258.819,152.695 259,149.5C 261.406,147.913 263.572,146.247 265.5,144.5 Z"/></g>
<g><path style="opacity:1" fill="#d7ad75" d="M 246.5,143.5 C 247.5,143.5 248.5,143.5 249.5,143.5C 250.862,148.787 248.862,151.454 243.5,151.5C 242.829,148.014 243.829,145.347 246.5,143.5 Z"/></g>
<g><path style="opacity:1" fill="#fbcf6f" d="M 269.5,141.5 C 269.335,144.518 269.502,147.518 270,150.5C 270.182,147.774 270.682,145.107 271.5,142.5C 273.772,141.559 275.772,140.226 277.5,138.5C 276.767,137.913 275.767,137.913 274.5,138.5C 275.585,136.418 277.085,136.084 279,137.5C 279.667,140.833 279.667,144.167 279,147.5C 275.854,149.826 272.354,151.159 268.5,151.5C 268.187,147.958 268.521,144.625 269.5,141.5 Z"/></g>
<g><path style="opacity:1" fill="#f5be39" d="M 269.5,141.5 C 270.768,139.953 272.435,138.953 274.5,138.5C 275.767,137.913 276.767,137.913 277.5,138.5C 275.772,140.226 273.772,141.559 271.5,142.5C 270.682,145.107 270.182,147.774 270,150.5C 269.502,147.518 269.335,144.518 269.5,141.5 Z"/></g>
<g><path style="opacity:1" fill="#dee2f0" d="M 232.5,105.5 C 235.352,105.352 237.019,106.686 237.5,109.5C 236.109,112.792 234.276,113.125 232,110.5C 231.36,108.735 231.527,107.068 232.5,105.5 Z"/></g>
<g><path style="opacity:1" fill="#4183c5" d="M 133.5,69.5 C 133.833,69.5 134.167,69.5 134.5,69.5C 134.5,69.8333 134.5,70.1667 134.5,70.5C 134.5,83.5 134.5,96.5 134.5,109.5C 148.833,109.5 163.167,109.5 177.5,109.5C 163.01,110.496 148.343,110.829 133.5,110.5C 133.5,96.8333 133.5,83.1667 133.5,69.5 Z"/></g>
<g><path style="opacity:1" fill="#222640" d="M 281.5,74.5 C 282.167,74.5 282.5,74.8333 282.5,75.5C 282.667,100.169 282.5,124.836 282,149.5C 281.832,129.329 281.332,109.329 280.5,89.5C 280.5,87.1667 280.5,84.8333 280.5,82.5C 277.169,82.0181 274.503,83.0181 272.5,85.5C 263.833,90.1667 255.167,94.8333 246.5,99.5C 242.053,101.761 240.386,105.428 241.5,110.5C 241.5,110.833 241.5,111.167 241.5,111.5C 240.668,131.329 240.168,151.329 240,171.5C 239.5,147.502 239.333,123.502 239.5,99.5C 240.625,97.8712 241.959,96.3712 243.5,95C 256.104,87.8676 268.771,81.0343 281.5,74.5 Z"/></g>
<g><path style="opacity:1" fill="#eb5a73" d="M 247.5,134.5 C 248.461,136.265 248.795,138.265 248.5,140.5C 247.18,141.942 245.514,142.608 243.5,142.5C 243.338,140.473 243.505,138.473 244,136.5C 244.816,135.177 245.983,134.511 247.5,134.5 Z"/></g>
<g><path style="opacity:1" fill="#d78595" d="M 247.5,134.5 C 247.56,133.957 247.893,133.624 248.5,133.5C 249.797,135.973 249.797,138.307 248.5,140.5C 248.795,138.265 248.461,136.265 247.5,134.5 Z"/></g>
<g><path style="opacity:1" fill="#79d06a" d="M 253.5,119.5 C 254.573,120.251 254.74,121.251 254,122.5C 252.309,125.359 249.809,126.692 246.5,126.5C 246.232,124.901 246.566,123.568 247.5,122.5C 249.328,121.206 251.328,120.206 253.5,119.5 Z"/></g>
<g><path style="opacity:1" fill="#9cd78f" d="M 253.5,119.5 C 251.328,120.206 249.328,121.206 247.5,122.5C 247.953,121.542 248.619,120.708 249.5,120C 247.527,116.242 248.527,114.075 252.5,113.5C 252.579,114.93 252.246,116.264 251.5,117.5C 252.243,118.182 252.909,118.849 253.5,119.5 Z"/></g>
<g><path style="opacity:1" fill="#efecf8" d="M 277.5,104.5 C 275.815,105.184 274.815,106.517 274.5,108.5C 273.311,109.429 271.978,109.762 270.5,109.5C 270.162,106.843 270.829,104.51 272.5,102.5C 270.282,101.812 268.782,102.812 268,105.5C 267.505,107.473 267.338,109.473 267.5,111.5C 268.031,113.624 269.365,115.124 271.5,116C 266.5,119.167 261.5,122.333 256.5,125.5C 255.288,123.159 255.622,120.993 257.5,119C 256.867,115.24 255.867,111.573 254.5,108C 258.737,105.585 263.071,103.418 267.5,101.5C 268.821,100.015 270.321,98.6821 272,97.5C 274.047,98.6094 276.213,99.2761 278.5,99.5C 278.784,101.415 278.451,103.081 277.5,104.5 Z"/></g>
<g><path style="opacity:1" fill="#e2c196" d="M 277.5,104.5 C 276.79,110.905 273.457,113.238 267.5,111.5C 267.338,109.473 267.505,107.473 268,105.5C 268.782,102.812 270.282,101.812 272.5,102.5C 270.829,104.51 270.162,106.843 270.5,109.5C 271.978,109.762 273.311,109.429 274.5,108.5C 274.815,106.517 275.815,105.184 277.5,104.5 Z"/></g>
<g><path style="opacity:1" fill="#af92eb" d="M 273.5,100.5 C 274.833,100.5 276.167,100.5 277.5,100.5C 277.719,101.675 277.386,102.675 276.5,103.5C 274.787,103.121 273.787,102.121 273.5,100.5 Z"/></g>
<g><path style="opacity:1" fill="#7c8ba9" d="M 246.5,99.5 C 243.959,98.3772 243.959,97.0439 246.5,95.5C 247.626,96.8084 247.626,98.1417 246.5,99.5 Z"/></g>
<g><path style="opacity:1" fill="#e05e78" d="M 272.5,85.5 C 273.5,85.5 274.5,85.5 275.5,85.5C 275.5,86.5 275.5,87.5 275.5,88.5C 276.167,89.1667 276.833,89.8333 277.5,90.5C 265.795,97.6861 253.795,104.353 241.5,110.5C 240.386,105.428 242.053,101.761 246.5,99.5C 255.167,94.8333 263.833,90.1667 272.5,85.5 Z"/></g>
<g><path style="opacity:1" fill="#fad7e1" d="M 259.5,95.5 C 261.337,95.6395 261.67,96.3061 260.5,97.5C 238.181,109.505 237.847,108.839 259.5,95.5 Z"/></g>
<g><path style="opacity:1" fill="#fde6ef" d="M 265.5,91.5 C 267.048,91.8212 267.715,92.8212 267.5,94.5C 264.752,94.5983 264.086,93.5983 265.5,91.5 Z"/></g>
<g><path style="opacity:1" fill="#fadae3" d="M 271.5,87.5 C 274.101,88.9225 273.934,90.2558 271,91.5C 270.5,91.1667 270,90.8333 269.5,90.5C 270.193,89.4822 270.859,88.4822 271.5,87.5 Z"/></g>
<g><path style="opacity:1" fill="#db6c87" d="M 280.5,89.5 C 279.391,89.5569 278.391,89.8902 277.5,90.5C 276.833,89.8333 276.167,89.1667 275.5,88.5C 278.275,88.1662 278.941,86.8329 277.5,84.5C 276.817,84.8627 276.15,85.1961 275.5,85.5C 274.5,85.5 273.5,85.5 272.5,85.5C 274.503,83.0181 277.169,82.0181 280.5,82.5C 280.5,84.8333 280.5,87.1667 280.5,89.5 Z"/></g>
<g><path style="opacity:1" fill="#fde2e8" d="M 275.5,88.5 C 275.5,87.5 275.5,86.5 275.5,85.5C 276.15,85.1961 276.817,84.8627 277.5,84.5C 278.941,86.8329 278.275,88.1662 275.5,88.5 Z"/></g>
<g><path style="opacity:1" fill="#e9f3f8" d="M 185.5,80.5 C 189.47,84.9297 189.47,89.4297 185.5,94C 183.19,94.4966 180.857,94.6633 178.5,94.5C 178.5,96.5 178.5,98.5 178.5,100.5C 174.958,100.813 171.625,100.479 168.5,99.5C 166.721,97.6565 164.388,96.9898 161.5,97.5C 159.996,99.3034 157.996,100.303 155.5,100.5C 150.584,100.314 145.584,100.147 140.5,100C 139.594,98.3005 139.261,96.4672 139.5,94.5C 141.488,94.8271 143.488,95.1604 145.5,95.5C 147.067,95.523 148.4,95.023 149.5,94C 145.836,93.0829 142.67,91.2496 140,88.5C 139.105,85.5337 139.605,82.8671 141.5,80.5C 145.122,79.3414 148.789,79.1747 152.5,80C 153.38,81.3561 153.714,82.8561 153.5,84.5C 150.428,84.1826 147.428,84.5159 144.5,85.5C 147.972,87.7381 151.638,89.7381 155.5,91.5C 156.971,87.7591 158.637,84.0924 160.5,80.5C 162.833,79.1667 165.167,79.1667 167.5,80.5C 169.236,84.8741 171.069,89.2075 173,93.5C 173.499,88.8452 173.666,84.1785 173.5,79.5C 177.566,79.307 181.566,79.6403 185.5,80.5 Z"/></g>
<g><path style="opacity:1" fill="#5f5e64" d="M 311.5,71.5 C 312.5,71.5 313.5,71.5 314.5,71.5C 315.469,95.3928 314.469,95.3928 311.5,71.5 Z"/></g>
<g><path style="opacity:1" fill="#bbc6d5" d="M 269.5,72.5 C 271.604,72.2011 273.604,72.5344 275.5,73.5C 274.5,73.8333 273.5,74.1667 272.5,74.5C 270.97,74.3601 269.97,73.6935 269.5,72.5 Z"/></g>
<g><path style="opacity:1" fill="#1d75d0" d="M 134.5,70.5 C 158.205,70.062 181.872,70.562 205.5,72C 204.85,75.9535 202.516,79.1202 198.5,81.5C 197.534,83.396 197.201,85.396 197.5,87.5C 194.092,87.5633 191.759,89.23 190.5,92.5C 189.833,88.8333 189.167,85.1667 188.5,81.5C 187.583,80.8728 186.583,80.5394 185.5,80.5C 181.566,79.6403 177.566,79.307 173.5,79.5C 173.666,84.1785 173.499,88.8452 173,93.5C 171.069,89.2075 169.236,84.8741 167.5,80.5C 165.167,79.1667 162.833,79.1667 160.5,80.5C 158.637,84.0924 156.971,87.7591 155.5,91.5C 151.638,89.7381 147.972,87.7381 144.5,85.5C 147.428,84.5159 150.428,84.1826 153.5,84.5C 153.714,82.8561 153.38,81.3561 152.5,80C 148.789,79.1747 145.122,79.3414 141.5,80.5C 139.605,82.8671 139.105,85.5337 140,88.5C 142.67,91.2496 145.836,93.0829 149.5,94C 148.4,95.023 147.067,95.523 145.5,95.5C 143.488,95.1604 141.488,94.8271 139.5,94.5C 139.261,96.4672 139.594,98.3005 140.5,100C 145.584,100.147 150.584,100.314 155.5,100.5C 157.996,100.303 159.996,99.3034 161.5,97.5C 163.715,98.2679 166.048,98.9346 168.5,99.5C 171.625,100.479 174.958,100.813 178.5,100.5C 179.451,99.0813 179.784,97.4147 179.5,95.5C 183.012,94.9455 186.012,95.6122 188.5,97.5C 185.542,102.126 181.876,106.126 177.5,109.5C 163.167,109.5 148.833,109.5 134.5,109.5C 134.5,96.5 134.5,83.5 134.5,70.5 Z"/></g>
<g><path style="opacity:1" fill="#6399d1" d="M 161.5,97.5 C 164.388,96.9898 166.721,97.6565 168.5,99.5C 166.048,98.9346 163.715,98.2679 161.5,97.5 Z"/></g>
<g><path style="opacity:1" fill="#7ba2cd" d="M 162.5,89.5 C 162.5,90.5 162.5,91.5 162.5,92.5C 163.791,92.7373 164.791,92.404 165.5,91.5C 166.043,91.56 166.376,91.8933 166.5,92.5C 164.955,93.4519 163.288,93.7852 161.5,93.5C 161.232,91.901 161.566,90.5676 162.5,89.5 Z"/></g>
<g><path style="opacity:1" fill="#397dc9" d="M 165.5,91.5 C 164.791,92.404 163.791,92.7373 162.5,92.5C 162.5,91.5 162.5,90.5 162.5,89.5C 162.461,88.2438 162.961,87.2438 164,86.5C 165.009,88.0249 165.509,89.6916 165.5,91.5 Z"/></g>
<g><path style="opacity:1" fill="#1f73ce" d="M 182.5,85.5 C 183.833,86.5 183.833,87.5 182.5,88.5C 181.5,88.5 180.5,88.5 179.5,88.5C 179.5,87.5 179.5,86.5 179.5,85.5C 180.5,85.5 181.5,85.5 182.5,85.5 Z"/></g>
<g><path style="opacity:1" fill="#5c8fc9" d="M 182.5,85.5 C 181.5,85.5 180.5,85.5 179.5,85.5C 179.5,86.5 179.5,87.5 179.5,88.5C 180.5,88.5 181.5,88.5 182.5,88.5C 181.432,89.4345 180.099,89.7678 178.5,89.5C 178.5,87.8333 178.5,86.1667 178.5,84.5C 180.099,84.2322 181.432,84.5655 182.5,85.5 Z"/></g>
<g><path style="opacity:1" fill="#2a77ca" d="M 134.5,70.5 C 134.5,70.1667 134.5,69.8333 134.5,69.5C 161.672,69.1688 188.672,69.5021 215.5,70.5C 206.86,79.8063 197.86,88.8063 188.5,97.5C 186.012,95.6122 183.012,94.9455 179.5,95.5C 179.784,97.4147 179.451,99.0813 178.5,100.5C 178.5,98.5 178.5,96.5 178.5,94.5C 180.857,94.6633 183.19,94.4966 185.5,94C 189.47,89.4297 189.47,84.9297 185.5,80.5C 186.583,80.5394 187.583,80.8728 188.5,81.5C 189.167,85.1667 189.833,88.8333 190.5,92.5C 191.759,89.23 194.092,87.5633 197.5,87.5C 197.201,85.396 197.534,83.396 198.5,81.5C 202.516,79.1202 204.85,75.9535 205.5,72C 181.872,70.562 158.205,70.062 134.5,70.5 Z"/></g>
<g><path style="opacity:1" fill="#86b1dd" d="M 133.5,69.5 C 161.003,68.1706 188.67,68.1706 216.5,69.5C 216.376,70.1067 216.043,70.44 215.5,70.5C 188.672,69.5021 161.672,69.1688 134.5,69.5C 134.167,69.5 133.833,69.5 133.5,69.5 Z"/></g>
<g><path style="opacity:1" fill="#65647c" d="M 143.5,217.5 C 145.607,216.532 147.941,216.198 150.5,216.5C 150.672,217.492 150.338,218.158 149.5,218.5C 147.735,217.539 145.735,217.205 143.5,217.5 Z"/></g>
<g><path style="opacity:1" fill="#5c5c77" d="M 223.5,218.5 C 223.167,218.5 222.833,218.5 222.5,218.5C 218.601,217.209 214.601,217.209 210.5,218.5C 210.5,218.167 210.5,217.833 210.5,217.5C 212.473,216.837 214.639,216.504 217,216.5C 219.61,216.533 221.777,217.2 223.5,218.5 Z"/></g>
<g><path style="opacity:1" fill="#66667e" d="M 225.5,217.5 C 228.287,216.523 231.287,216.19 234.5,216.5C 234.5,217.833 234.5,219.167 234.5,220.5C 234.815,224.371 234.482,228.038 233.5,231.5C 233.5,226.833 233.5,222.167 233.5,217.5C 230.833,217.5 228.167,217.5 225.5,217.5 Z"/></g>
<g><path style="opacity:1" fill="#615f7a" d="M 269.5,216.5 C 272.385,216.194 275.052,216.527 277.5,217.5C 274.612,216.99 272.279,217.656 270.5,219.5C 269.596,218.791 269.263,217.791 269.5,216.5 Z"/></g>
<g><path style="opacity:1" fill="#56556f" d="M 279.5,216.5 C 282.713,216.19 285.713,216.523 288.5,217.5C 285.615,217.194 282.948,217.527 280.5,218.5C 279.662,218.158 279.328,217.492 279.5,216.5 Z"/></g>
<g><path style="opacity:1" fill="#595675" d="M 291.5,216.5 C 294.059,216.198 296.393,216.532 298.5,217.5C 296.265,217.205 294.265,217.539 292.5,218.5C 291.662,218.158 291.328,217.492 291.5,216.5 Z"/></g>
<g><path style="opacity:1" fill="#2a2b54" d="M 175.5,216.5 C 179.167,216.5 182.833,216.5 186.5,216.5C 184.636,221.426 182.969,226.426 181.5,231.5C 177.298,231.817 173.298,231.483 169.5,230.5C 171.5,225.833 173.5,221.167 175.5,216.5 Z"/></g>
<g><path style="opacity:1" fill="#282a53" d="M 222.5,218.5 C 221.619,222.454 220.952,226.454 220.5,230.5C 220.5,231.167 220.167,231.5 219.5,231.5C 215.167,231.5 210.833,231.5 206.5,231.5C 207.556,227.062 208.889,222.729 210.5,218.5C 214.601,217.209 218.601,217.209 222.5,218.5 Z"/></g>
<g><path style="opacity:1" fill="#cdcfda" d="M 234.5,216.5 C 235.167,216.5 235.833,216.5 236.5,216.5C 236.5,217.833 236.5,219.167 236.5,220.5C 236.795,222.735 236.461,224.735 235.5,226.5C 235.795,224.265 235.461,222.265 234.5,220.5C 234.5,219.167 234.5,217.833 234.5,216.5 Z"/></g>
<g><path style="opacity:1" fill="#2b2c55" d="M 277.5,217.5 C 279.501,221.838 281.501,226.172 283.5,230.5C 280.572,231.484 277.572,231.817 274.5,231.5C 273.166,227.495 271.832,223.495 270.5,219.5C 272.279,217.656 274.612,216.99 277.5,217.5 Z"/></g>
<g><path style="opacity:1" fill="#2d2d55" d="M 298.5,217.5 C 303.146,221.479 307.479,225.812 311.5,230.5C 307.79,231.758 304.123,231.758 300.5,230.5C 298.226,226.228 295.559,222.228 292.5,218.5C 294.265,217.539 296.265,217.205 298.5,217.5 Z"/></g>
<g><path style="opacity:1" fill="#c4c4cf" d="M 186.5,216.5 C 187.167,216.5 187.833,216.5 188.5,216.5C 186.874,221.42 185.541,226.42 184.5,231.5C 186.833,231.5 189.167,231.5 191.5,231.5C 188.269,232.782 184.936,232.782 181.5,231.5C 182.969,226.426 184.636,221.426 186.5,216.5 Z"/></g>
<g><path style="opacity:1" fill="#292a53" d="M 245.5,224.5 C 245.5,226.833 245.5,229.167 245.5,231.5C 242.167,231.5 238.833,231.5 235.5,231.5C 235.5,229.833 235.5,228.167 235.5,226.5C 236.461,224.735 236.795,222.735 236.5,220.5C 237.404,219.791 237.737,218.791 237.5,217.5C 239.833,217.5 242.167,217.5 244.5,217.5C 244.198,220.059 244.532,222.393 245.5,224.5 Z"/></g>
<g><path style="opacity:1" fill="#2d2e56" d="M 258.5,216.5 C 261.5,216.5 264.5,216.5 267.5,216.5C 268.984,221.618 270.65,226.618 272.5,231.5C 268.833,231.5 265.167,231.5 261.5,231.5C 260.657,226.462 259.657,221.462 258.5,216.5 Z"/></g>
<g><path style="opacity:1" fill="#c3c3ce" d="M 222.5,218.5 C 222.833,218.5 223.167,218.5 223.5,218.5C 223.328,219.492 223.662,220.158 224.5,220.5C 223.083,224.002 222.416,227.669 222.5,231.5C 226.167,231.5 229.833,231.5 233.5,231.5C 231.696,232.162 229.696,232.495 227.5,232.5C 224.887,232.357 222.553,231.69 220.5,230.5C 220.952,226.454 221.619,222.454 222.5,218.5 Z"/></g>
<g><path style="opacity:1" fill="#d6d8df" d="M 150.5,216.5 C 151.167,216.833 151.833,217.167 152.5,217.5C 149.857,222.132 146.857,226.465 143.5,230.5C 142.662,230.842 142.328,231.508 142.5,232.5C 141.833,232.5 141.167,232.5 140.5,232.5C 140.5,232.167 140.5,231.833 140.5,231.5C 143.747,227.341 146.747,223.008 149.5,218.5C 150.338,218.158 150.672,217.492 150.5,216.5 Z"/></g>
<g><path style="opacity:1" fill="#c7c8d1" d="M 198.5,216.5 C 199.167,216.5 199.833,216.5 200.5,216.5C 198.701,221.225 196.701,225.891 194.5,230.5C 197.768,231.487 201.102,231.82 204.5,231.5C 202.866,232.161 201.033,232.494 199,232.5C 196.551,232.342 194.384,231.675 192.5,230.5C 194.517,225.803 196.517,221.136 198.5,216.5 Z"/></g>
<g><path style="opacity:1" fill="#d9dae1" d="M 161.5,216.5 C 162.5,216.5 163.5,216.5 164.5,216.5C 161.526,221.149 158.526,225.816 155.5,230.5C 154.662,230.842 154.328,231.508 154.5,232.5C 153.833,232.167 153.167,231.833 152.5,231.5C 155.078,227.354 157.911,223.354 161,219.5C 161.483,218.552 161.649,217.552 161.5,216.5 Z"/></g>
<g><path style="opacity:1" fill="#ceced7" d="M 208.5,216.5 C 209.167,216.833 209.833,217.167 210.5,217.5C 210.5,217.833 210.5,218.167 210.5,218.5C 208.889,222.729 207.556,227.062 206.5,231.5C 210.833,231.5 215.167,231.5 219.5,231.5C 217.359,232.163 215.025,232.497 212.5,232.5C 209.559,232.379 206.892,231.713 204.5,230.5C 206.146,225.916 207.479,221.249 208.5,216.5 Z"/></g>
<g><path style="opacity:1" fill="#65657e" d="M 236.5,216.5 C 239.5,216.5 242.5,216.5 245.5,216.5C 245.5,219.167 245.5,221.833 245.5,224.5C 244.532,222.393 244.198,220.059 244.5,217.5C 242.167,217.5 239.833,217.5 237.5,217.5C 237.737,218.791 237.404,219.791 236.5,220.5C 236.5,219.167 236.5,217.833 236.5,216.5 Z"/></g>
<g><path style="opacity:1" fill="#cecfd7" d="M 256.5,216.5 C 257.167,216.5 257.833,216.5 258.5,216.5C 259.657,221.462 260.657,226.462 261.5,231.5C 256.702,232.744 252.035,232.744 247.5,231.5C 251.167,231.5 254.833,231.5 258.5,231.5C 258.092,226.463 257.426,221.463 256.5,216.5 Z"/></g>
<g><path style="opacity:1" fill="#2b2c54" d="M 288.5,217.5 C 288.833,217.5 289.167,217.5 289.5,217.5C 292.526,222.184 295.526,226.851 298.5,231.5C 294.486,231.666 290.486,231.499 286.5,231C 285.944,230.617 285.611,230.117 285.5,229.5C 283.578,225.987 281.912,222.321 280.5,218.5C 282.948,217.527 285.615,217.194 288.5,217.5 Z"/></g>
<g><path style="opacity:1" fill="#d4d5dd" d="M 172.5,216.5 C 173.5,216.5 174.5,216.5 175.5,216.5C 173.5,221.167 171.5,225.833 169.5,230.5C 169.167,230.5 168.833,230.5 168.5,230.5C 168.167,230.5 167.833,230.5 167.5,230.5C 169.174,225.823 170.84,221.156 172.5,216.5 Z"/></g>
<g><path style="opacity:1" fill="#2a2b54" d="M 188.5,216.5 C 191.833,216.5 195.167,216.5 198.5,216.5C 196.517,221.136 194.517,225.803 192.5,230.5C 192.5,231.167 192.167,231.5 191.5,231.5C 189.167,231.5 186.833,231.5 184.5,231.5C 185.541,226.42 186.874,221.42 188.5,216.5 Z"/></g>
<g><path style="opacity:1" fill="#cfd0db" d="M 267.5,216.5 C 268.167,216.5 268.833,216.5 269.5,216.5C 269.263,217.791 269.596,218.791 270.5,219.5C 271.832,223.495 273.166,227.495 274.5,231.5C 273.833,231.5 273.167,231.5 272.5,231.5C 270.65,226.618 268.984,221.618 267.5,216.5 Z"/></g>
<g><path style="opacity:1" fill="#2b2c54" d="M 143.5,217.5 C 145.735,217.205 147.735,217.539 149.5,218.5C 146.747,223.008 143.747,227.341 140.5,231.5C 136.958,231.813 133.625,231.479 130.5,230.5C 134.833,226.167 139.167,221.833 143.5,217.5 Z"/></g>
<g><path style="opacity:1" fill="#2d2e55" d="M 161.5,216.5 C 161.649,217.552 161.483,218.552 161,219.5C 157.911,223.354 155.078,227.354 152.5,231.5C 149.287,231.81 146.287,231.477 143.5,230.5C 146.857,226.465 149.857,222.132 152.5,217.5C 155.287,216.523 158.287,216.19 161.5,216.5 Z"/></g>
<g><path style="opacity:1" fill="#2a2c54" d="M 164.5,216.5 C 167.167,216.5 169.833,216.5 172.5,216.5C 170.84,221.156 169.174,225.823 167.5,230.5C 167.5,231.167 167.167,231.5 166.5,231.5C 162.629,231.815 158.962,231.482 155.5,230.5C 158.526,225.816 161.526,221.149 164.5,216.5 Z"/></g>
<g><path style="opacity:1" fill="#cfd2da" d="M 291.5,216.5 C 291.328,217.492 291.662,218.158 292.5,218.5C 295.559,222.228 298.226,226.228 300.5,230.5C 299.833,230.833 299.167,231.167 298.5,231.5C 295.526,226.851 292.526,222.184 289.5,217.5C 290.167,217.167 290.833,216.833 291.5,216.5 Z"/></g>
<g><path style="opacity:1" fill="#2c2d55" d="M 200.5,216.5 C 203.167,216.5 205.833,216.5 208.5,216.5C 207.479,221.249 206.146,225.916 204.5,230.5C 204.5,230.833 204.5,231.167 204.5,231.5C 201.102,231.82 197.768,231.487 194.5,230.5C 196.701,225.891 198.701,221.225 200.5,216.5 Z"/></g>
<g><path style="opacity:1" fill="#2f3057" d="M 301.5,217.5 C 305.22,216.225 308.887,216.725 312.5,219C 316.321,222.655 319.988,226.489 323.5,230.5C 320.554,231.655 317.554,231.821 314.5,231C 310.664,225.997 306.33,221.497 301.5,217.5 Z"/></g>
<g><path style="opacity:1" fill="#282a52" d="M 225.5,217.5 C 228.167,217.5 230.833,217.5 233.5,217.5C 233.5,222.167 233.5,226.833 233.5,231.5C 229.833,231.5 226.167,231.5 222.5,231.5C 222.416,227.669 223.083,224.002 224.5,220.5C 224.263,219.209 224.596,218.209 225.5,217.5 Z"/></g>
<g><path style="opacity:1" fill="#2b2d54" d="M 256.5,216.5 C 257.426,221.463 258.092,226.463 258.5,231.5C 254.833,231.5 251.167,231.5 247.5,231.5C 247.5,226.5 247.5,221.5 247.5,216.5C 250.5,216.5 253.5,216.5 256.5,216.5 Z"/></g>
<g><path style="opacity:1" fill="#777587" d="M 130.5,230.5 C 133.625,231.479 136.958,231.813 140.5,231.5C 140.5,231.833 140.5,232.167 140.5,232.5C 136.774,232.823 133.107,232.489 129.5,231.5C 129.624,230.893 129.957,230.56 130.5,230.5 Z"/></g>
<g><path style="opacity:1" fill="#818392" d="M 143.5,230.5 C 146.287,231.477 149.287,231.81 152.5,231.5C 149.375,232.479 146.042,232.813 142.5,232.5C 142.328,231.508 142.662,230.842 143.5,230.5 Z"/></g>
<g><path style="opacity:1" fill="#858594" d="M 155.5,230.5 C 158.962,231.482 162.629,231.815 166.5,231.5C 162.702,232.483 158.702,232.817 154.5,232.5C 154.328,231.508 154.662,230.842 155.5,230.5 Z"/></g>
<g><path style="opacity:1" fill="#9392a1" d="M 168.5,230.5 C 168.833,230.5 169.167,230.5 169.5,230.5C 173.298,231.483 177.298,231.817 181.5,231.5C 179.527,232.163 177.361,232.496 175,232.5C 172.39,232.467 170.223,231.8 168.5,230.5 Z"/></g>
<g><path style="opacity:1" fill="#ceced6" d="M 279.5,216.5 C 279.328,217.492 279.662,218.158 280.5,218.5C 281.912,222.321 283.578,225.987 285.5,229.5C 284.596,230.209 284.263,231.209 284.5,232.5C 280.958,232.813 277.625,232.479 274.5,231.5C 277.572,231.817 280.572,231.484 283.5,230.5C 281.501,226.172 279.501,221.838 277.5,217.5C 278.167,217.167 278.833,216.833 279.5,216.5 Z"/></g>
<g><path style="opacity:1" fill="#e2e2e7" d="M 189.5,240.5 C 214.661,239.502 239.995,239.169 265.5,239.5C 265.5,241.167 265.5,242.833 265.5,244.5C 264.751,243.469 264.085,242.302 263.5,241C 238.836,240.5 214.169,240.333 189.5,240.5 Z"/></g>
<g><path style="opacity:1" fill="#292b55" d="M 189.5,240.5 C 214.169,240.333 238.836,240.5 263.5,241C 264.085,242.302 264.751,243.469 265.5,244.5C 266.698,247.426 267.698,250.426 268.5,253.5C 241.33,254.829 213.997,254.829 186.5,253.5C 187.785,250.979 188.452,248.313 188.5,245.5C 189.038,243.883 189.371,242.216 189.5,240.5 Z"/></g>
<g><path style="opacity:1" fill="#67687d" d="M 188.5,245.5 C 188.452,248.313 187.785,250.979 186.5,253.5C 213.997,254.829 241.33,254.829 268.5,253.5C 269.043,253.56 269.376,253.893 269.5,254.5C 241.508,255.5 213.508,255.833 185.5,255.5C 185.723,251.838 186.723,248.505 188.5,245.5 Z"/></g>
<g><path style="opacity:1" fill="#b1cec9" d="M 168.5,265.5 C 230.002,265.168 291.336,265.501 352.5,266.5C 351.833,266.833 351.167,267.167 350.5,267.5C 290.336,266.501 230.002,266.168 169.5,266.5C 168.833,266.5 168.5,266.167 168.5,265.5 Z"/></g>
<g><path style="opacity:1" fill="#8eb7a8" d="M 169.5,266.5 C 230.002,266.168 290.336,266.501 350.5,267.5C 330.776,278.366 310.443,288.199 289.5,297C 252.305,305.524 217.305,299.857 184.5,280C 178.708,276.375 173.708,271.875 169.5,266.5 Z"/></g>
</svg>
